<svg id="Capa_1" data-name="Capa 1" xmlns="http://www.w3.org/2000/svg" viewBox="0 0 129.59 44.68"><defs><style>.cls-1{fill:#2053a1;}.cls-2{fill:#1553a1;}.cls-3{fill:#1d1d1b;}.cls-4{fill:none;stroke:#1d1d1b;stroke-miterlimit:10;stroke-width:0.15px;}</style></defs><path class="cls-1" d="M61,64.32a7.72,7.72,0,0,1,3.11,2.92,7.34,7.34,0,0,1,1.17,3.86,6.3,6.3,0,0,1-1.36,4,4.21,4.21,0,0,1-3.47,1.72,4.57,4.57,0,0,1-2.27-.7,6.32,6.32,0,0,1-2.12-2,6.39,6.39,0,0,1,2.24-2.05l.2.25a4.3,4.3,0,0,0-.05.72A2.76,2.76,0,0,0,59.23,75a2.19,2.19,0,0,0,1.68.84,2.28,2.28,0,0,0,1.91-1,4,4,0,0,0,.75-2.48q0-3.09-3.67-5.51l-2.12,3.34a29.31,29.31,0,0,1-1.84,2.75l-.77-.63a68.08,68.08,0,0,0,5.06-9.17l.6,0Zm8.52,8.1c-1.78,2.93-4,4.51-6.73,4.76l-.15-.47a7.61,7.61,0,0,0,3-1.41,18,18,0,0,0,3.08-3.48Z" transform="translate(-55.17 -47.04)"/><path class="cls-1" d="M68.58,72.07c.31-.5.63-1,1-1.58S70.3,69,70.9,67.78a10.74,10.74,0,0,0,.9-2.14V54.45a7.64,7.64,0,0,1,1.93-5.16A5.7,5.7,0,0,1,78.13,47C80.07,47,81,48,81,49.76a14.49,14.49,0,0,1-1.34,5.56,77.13,77.13,0,0,1-5.41,9.6V75.34a4.25,4.25,0,0,0,2.12-.7,13.89,13.89,0,0,0,2.79-3.29L80,72q-2.89,4.78-5.68,4.79v8.63A6.55,6.55,0,0,1,72.71,90a5.11,5.11,0,0,1-3.93,1.74,4.39,4.39,0,0,1-3.87-2.15l2-2,.4.35a2.67,2.67,0,0,0-.15.73,2.35,2.35,0,0,0,.6,1.62,2,2,0,0,0,1.54.67q2.45,0,2.45-5v-9.2a6.11,6.11,0,0,1-2.55-1.12,5.44,5.44,0,0,1,1.12-2.15,3.19,3.19,0,0,0,1.43,1.4V68.28a21.4,21.4,0,0,1-2.5,4.47Zm5.71-9.6Q79,54.93,79,50.38c0-1.51-.55-2.27-1.64-2.27a2.64,2.64,0,0,0-2.15,1.29,5.68,5.68,0,0,0-.92,3.38Z" transform="translate(-55.17 -47.04)"/><path class="cls-1" d="M92.44,72.42q-2.79,4.44-7.21,4.44a4.51,4.51,0,0,1-3.46-1.41,5.56,5.56,0,0,1-1.32-4l0-.2-1.13,1.55-.82-.58q3.69-5.43,5.27-6.44a5.8,5.8,0,0,1,3.16-1,4.16,4.16,0,0,1,3.76,1.79,2.92,2.92,0,0,1-1.62,2c-.73-1.81-1.8-2.72-3.21-2.72A3,3,0,0,0,83.65,67a4.28,4.28,0,0,0-1,2.94,5.49,5.49,0,0,0,1.2,3.56,3.71,3.71,0,0,0,3,1.5q2.53,0,4.74-3.22Z" transform="translate(-55.17 -47.04)"/><path class="cls-2" d="M93.94,75.41l1-.69a2.6,2.6,0,0,0,1.14,1.07,3.43,3.43,0,0,0,1.53.34,4.21,4.21,0,0,0,.62,0,3,3,0,0,0,.59-.15,1.77,1.77,0,0,0,.49-.27,1.21,1.21,0,0,0,.34-.4,1.32,1.32,0,0,0,.13-.56,1,1,0,0,0-.12-.49,1.22,1.22,0,0,0-.3-.37,2,2,0,0,0-.49-.25,3.06,3.06,0,0,0-.59-.17l-.67-.12-.7-.12c-.21,0-.44-.09-.7-.16a4.82,4.82,0,0,1-.65-.23,3.17,3.17,0,0,1-.52-.32,1.79,1.79,0,0,1-.67-1,2.28,2.28,0,0,1-.1-.72,2.14,2.14,0,0,1,.29-1.11,2.08,2.08,0,0,1,.79-.77,4.07,4.07,0,0,1,1-.43,5,5,0,0,1,1.17-.14,3.47,3.47,0,0,1,3.2,1.46l-1,.7a2.06,2.06,0,0,0-.88-.69,3.13,3.13,0,0,0-1.24-.27,2.69,2.69,0,0,0-1.44.35,1.1,1.1,0,0,0-.55,1,.89.89,0,0,0,.11.43,1,1,0,0,0,.29.32,1.53,1.53,0,0,0,.48.22l.57.13.62.11.7.12a4.73,4.73,0,0,1,.72.18,6.25,6.25,0,0,1,.69.27,3.48,3.48,0,0,1,.55.33,2.27,2.27,0,0,1,.43.45,2.39,2.39,0,0,1,.27.58,2.68,2.68,0,0,1-.1,1.74,2.33,2.33,0,0,1-.54.75,2.88,2.88,0,0,1-.79.5,4.62,4.62,0,0,1-1,.29,6.06,6.06,0,0,1-1.06.09,4.81,4.81,0,0,1-2.21-.46A3.4,3.4,0,0,1,93.94,75.41Z" transform="translate(-55.17 -47.04)"/><path class="cls-2" d="M102.73,77.16V68.58H109v1.34h-4.92v2.32h4.72v1.27h-4.72v2.31h5v1.34Z" transform="translate(-55.17 -47.04)"/><path class="cls-2" d="M110.83,77.16V68.59h6.06v1.34H112.2v2.61h4.46v1.27H112.2v3.35Z" transform="translate(-55.17 -47.04)"/><path class="cls-2" d="M118.5,77.16V68.58h1.37v8.58Z" transform="translate(-55.17 -47.04)"/><path class="cls-2" d="M122,77.16V68.58h1l4.87,6.1v-6.1h1.38v8.58h-1l-4.87-6.06v6.06Z" transform="translate(-55.17 -47.04)"/><path class="cls-2" d="M130.93,72.93v0a5,5,0,0,1,.17-1.29,4,4,0,0,1,.54-1.22,4.09,4.09,0,0,1,.89-1,3.94,3.94,0,0,1,1.27-.68,5.14,5.14,0,0,1,1.65-.25,4.43,4.43,0,0,1,1.69.33,4.34,4.34,0,0,1,1.44,1l-.91.86a3.22,3.22,0,0,0-1-.65,3.53,3.53,0,0,0-1.2-.21A3.48,3.48,0,0,0,134,70a2.52,2.52,0,0,0-1,.73,3.25,3.25,0,0,0-.57,1,3.53,3.53,0,0,0-.19,1.13v0a3.67,3.67,0,0,0,.2,1.16,3.26,3.26,0,0,0,.55,1,2.63,2.63,0,0,0,1,.71,3.58,3.58,0,0,0,1.43.27,3.13,3.13,0,0,0,1.22-.25,3,3,0,0,0,1.06-.69l.94.95a4.44,4.44,0,0,1-3.22,1.26,5.41,5.41,0,0,1-1.66-.24,3.86,3.86,0,0,1-2.16-1.63,4.58,4.58,0,0,1-.53-1.2A5.84,5.84,0,0,1,130.93,72.93Z" transform="translate(-55.17 -47.04)"/><path class="cls-2" d="M139.54,72.91a4.76,4.76,0,0,1,.56-2.31,4,4,0,0,1,1.57-1.6,4.58,4.58,0,0,1,2.29-.58,5.34,5.34,0,0,1,1.58.25,3.82,3.82,0,0,1,1.23.67,3.88,3.88,0,0,1,.86,1,4.15,4.15,0,0,1,.53,1.22,5.45,5.45,0,0,1,0,2.7,4.1,4.1,0,0,1-1.39,2.2,3.86,3.86,0,0,1-1.24.66,5.18,5.18,0,0,1-1.61.24,5,5,0,0,1-1.59-.25,3.77,3.77,0,0,1-1.24-.67,3.84,3.84,0,0,1-.86-1,4.18,4.18,0,0,1-.52-1.21A5.33,5.33,0,0,1,139.54,72.91Zm1.35,0a4.53,4.53,0,0,0,.12.91,3.18,3.18,0,0,0,.35.86,3.1,3.1,0,0,0,.58.71,2.65,2.65,0,0,0,.86.49,3.33,3.33,0,0,0,1.12.18,3.42,3.42,0,0,0,1.37-.26,2.38,2.38,0,0,0,1-.7,3.13,3.13,0,0,0,.54-1,4.12,4.12,0,0,0,.17-1.19,4.19,4.19,0,0,0-.17-1.17,3.34,3.34,0,0,0-.54-1,2.55,2.55,0,0,0-.94-.76,3.26,3.26,0,0,0-1.35-.3,2.85,2.85,0,0,0-2.25.91A3.36,3.36,0,0,0,140.89,72.92Z" transform="translate(-55.17 -47.04)"/><path class="cls-2" d="M149.59,76.56a.64.64,0,0,1,.16-.45.72.72,0,0,1,.39-.23,1.19,1.19,0,0,1,.46,0,.68.68,0,0,1,.39.24.71.71,0,0,1,.16.48v.08a.26.26,0,0,1,0,.1l0,.14a1.65,1.65,0,0,0-.07.21c0,.09-.07.19-.1.28s-.08.23-.14.4l-.18.53h-.77l.28-1.17a.67.67,0,0,1-.38-.2A.57.57,0,0,1,149.59,76.56Z" transform="translate(-55.17 -47.04)"/><path class="cls-2" d="M155,76.67l.29-.19a.71.71,0,0,0,.32.3,1,1,0,0,0,.42.09h.17l.17,0a.4.4,0,0,0,.23-.19.33.33,0,0,0,0-.15.32.32,0,0,0,0-.14.39.39,0,0,0-.08-.1.46.46,0,0,0-.14-.07l-.16,0-.19,0-.19,0-.2,0-.18-.06-.14-.09a.46.46,0,0,1-.12-.12.52.52,0,0,1-.07-.15.64.64,0,0,1,0-.2.62.62,0,0,1,.08-.31.77.77,0,0,1,.22-.22,1,1,0,0,1,.3-.11,1.12,1.12,0,0,1,.32,0,1,1,0,0,1,.89.4l-.29.2a.68.68,0,0,0-.24-.2,1,1,0,0,0-.35-.07.7.7,0,0,0-.4.1.29.29,0,0,0-.15.27.27.27,0,0,0,0,.12l.08.09.13.06.16,0,.17,0,.2,0a.84.84,0,0,1,.2,0l.19.07.15.09a.49.49,0,0,1,.12.13.6.6,0,0,1,.08.16.64.64,0,0,1,0,.2.61.61,0,0,1-.06.28.57.57,0,0,1-.15.21.83.83,0,0,1-.22.14,1.2,1.2,0,0,1-.27.08,1.37,1.37,0,0,1-.29,0,1.46,1.46,0,0,1-.62-.12A1,1,0,0,1,155,76.67Z" transform="translate(-55.17 -47.04)"/><path class="cls-2" d="M157.36,77a.19.19,0,0,1,.07-.16.22.22,0,0,1,.15-.06.24.24,0,0,1,.15.06.22.22,0,0,1,.07.16.25.25,0,0,1-.05.15.16.16,0,0,1-.11.07h-.12a.16.16,0,0,1-.11-.07A.25.25,0,0,1,157.36,77Z" transform="translate(-55.17 -47.04)"/><path class="cls-2" d="M159,76.32a.87.87,0,0,1,.24-.65.85.85,0,0,1,.61-.23.81.81,0,0,1,.34.08.55.55,0,0,1,.25.22v-1h.35v2.38h-.33l0-.27a.51.51,0,0,1-.25.23.72.72,0,0,1-.33.07.88.88,0,0,1-.62-.23A.86.86,0,0,1,159,76.32Zm.35,0a.55.55,0,0,0,.15.4.54.54,0,0,0,.38.15.49.49,0,0,0,.38-.16.5.5,0,0,0,.16-.39.54.54,0,0,0-.16-.4.56.56,0,0,0-.76,0A.54.54,0,0,0,159.32,76.32Z" transform="translate(-55.17 -47.04)"/><path class="cls-2" d="M161.14,76.31a.82.82,0,0,1,.88-.87.78.78,0,0,1,.85.85.86.86,0,0,1,0,.16H161.5a.46.46,0,0,0,.17.31.6.6,0,0,0,.38.12.86.86,0,0,0,.27,0,.52.52,0,0,0,.22-.14l.22.23a.81.81,0,0,1-.32.21,1.09,1.09,0,0,1-.4.07.92.92,0,0,1-.66-.24A.88.88,0,0,1,161.14,76.31Zm.37-.15h1a.4.4,0,0,0-.15-.31.56.56,0,0,0-.35-.1.55.55,0,0,0-.34.1A.45.45,0,0,0,161.51,76.16Z" transform="translate(-55.17 -47.04)"/><path class="cls-2" d="M164.13,77.16V74.77h1.11a1,1,0,0,1,.36.06.61.61,0,0,1,.26.18.78.78,0,0,1,.16.24.77.77,0,0,1,.06.3,1.09,1.09,0,0,1,0,.25.65.65,0,0,1-.11.22.67.67,0,0,1-.2.17,1,1,0,0,1-.3.1l.71.79,0,.07h-.44l-.73-.82h-.5v.82Zm.38-1.17h.72a.45.45,0,0,0,.34-.12.45.45,0,0,0,.12-.31.45.45,0,0,0,0-.16,1,1,0,0,0-.08-.14.5.5,0,0,0-.14-.1.65.65,0,0,0-.2,0h-.73Z" transform="translate(-55.17 -47.04)"/><path class="cls-2" d="M166.48,77a.21.21,0,0,1,.06-.16.24.24,0,0,1,.15-.06.2.2,0,0,1,.15.06.19.19,0,0,1,.07.16.24.24,0,0,1,0,.15.19.19,0,0,1-.11.07h-.13a.19.19,0,0,1-.11-.07A.24.24,0,0,1,166.48,77Z" transform="translate(-55.17 -47.04)"/><path class="cls-2" d="M168.25,77.16V74.78h.38v2h1.26v.35Z" transform="translate(-55.17 -47.04)"/><path class="cls-2" d="M170.15,77a.21.21,0,0,1,.06-.16.24.24,0,0,1,.15-.06.2.2,0,0,1,.15.06.19.19,0,0,1,.07.16.24.24,0,0,1,0,.15.19.19,0,0,1-.11.07h-.13a.19.19,0,0,1-.11-.07A.24.24,0,0,1,170.15,77Z" transform="translate(-55.17 -47.04)"/><path class="cls-2" d="M171.76,76.32a.9.9,0,0,1,.23-.65.88.88,0,0,1,1-.15.67.67,0,0,1,.25.22v-1h.35v2.38h-.33l0-.27a.61.61,0,0,1-.25.23.72.72,0,0,1-.33.07A.88.88,0,0,1,172,77,.86.86,0,0,1,171.76,76.32Zm.35,0a.55.55,0,0,0,.15.4.52.52,0,0,0,.38.15.49.49,0,0,0,.38-.16.53.53,0,0,0,.16-.39.58.58,0,0,0-.16-.4.56.56,0,0,0-.76,0A.54.54,0,0,0,172.11,76.32Z" transform="translate(-55.17 -47.04)"/><path class="cls-2" d="M173.92,76.31a.84.84,0,0,1,.88-.87.8.8,0,0,1,.66.26.84.84,0,0,1,.19.59v.16h-1.36a.42.42,0,0,0,.17.31.57.57,0,0,0,.37.12,1,1,0,0,0,.28,0,.55.55,0,0,0,.21-.14l.23.23a.81.81,0,0,1-.32.21,1.12,1.12,0,0,1-.4.07.89.89,0,0,1-.66-.24A.85.85,0,0,1,173.92,76.31Zm.37-.15h1a.4.4,0,0,0-.15-.31.54.54,0,0,0-.35-.1.57.57,0,0,0-.34.1A.54.54,0,0,0,174.29,76.16Z" transform="translate(-55.17 -47.04)"/><path class="cls-2" d="M176.76,76v0a1.49,1.49,0,0,1,.05-.36,1.09,1.09,0,0,1,.15-.33,1.12,1.12,0,0,1,.25-.28.91.91,0,0,1,.35-.19,1.35,1.35,0,0,1,.46-.07,1.27,1.27,0,0,1,.47.09,1.18,1.18,0,0,1,.4.27l-.26.24a.75.75,0,0,0-.28-.18,1,1,0,0,0-.33-.06.93.93,0,0,0-.39.08.65.65,0,0,0-.28.2,1,1,0,0,0-.16.28,1.06,1.06,0,0,0-.05.31h0a1.07,1.07,0,0,0,.05.32.85.85,0,0,0,.16.28.79.79,0,0,0,.27.2,1,1,0,0,0,.4.07,1.06,1.06,0,0,0,.34-.06.84.84,0,0,0,.29-.2l.26.27a1.23,1.23,0,0,1-.89.35,1.35,1.35,0,0,1-.46-.07,1,1,0,0,1-.6-.45,1.14,1.14,0,0,1-.15-.34A1.42,1.42,0,0,1,176.76,76Z" transform="translate(-55.17 -47.04)"/><path class="cls-2" d="M179.2,77a.19.19,0,0,1,.07-.16.2.2,0,0,1,.15-.06.24.24,0,0,1,.15.06.22.22,0,0,1,.07.16.25.25,0,0,1,0,.15.19.19,0,0,1-.11.07h-.13a.17.17,0,0,1-.1-.07A.25.25,0,0,1,179.2,77Z" transform="translate(-55.17 -47.04)"/><path class="cls-2" d="M180.71,74.78h.43l.76,1.93.76-1.93h.43l-1,2.39h-.4Z" transform="translate(-55.17 -47.04)"/><path class="cls-2" d="M183.33,77a.21.21,0,0,1,.06-.16.24.24,0,0,1,.15-.06.2.2,0,0,1,.15.06.19.19,0,0,1,.07.16.24.24,0,0,1,0,.15.19.19,0,0,1-.11.07h-.13a.19.19,0,0,1-.11-.07A.24.24,0,0,1,183.33,77Z" transform="translate(-55.17 -47.04)"/><path class="cls-3" d="M101,85.24l.29-.19a.69.69,0,0,0,.31.3,1.07,1.07,0,0,0,.43.09h.17l.16,0a.46.46,0,0,0,.14-.07.4.4,0,0,0,.1-.12.33.33,0,0,0,0-.15.32.32,0,0,0,0-.14.28.28,0,0,0-.09-.1.4.4,0,0,0-.13-.07l-.16,0-.19,0-.2,0-.19,0-.18-.06-.14-.09-.12-.12a.52.52,0,0,1-.07-.15.64.64,0,0,1,0-.2.62.62,0,0,1,.08-.31.77.77,0,0,1,.22-.22,1,1,0,0,1,.29-.11,1.24,1.24,0,0,1,.33,0,1,1,0,0,1,.89.4l-.29.2a.63.63,0,0,0-.25-.2.94.94,0,0,0-.34-.07.68.68,0,0,0-.4.1.29.29,0,0,0-.15.27.27.27,0,0,0,0,.12l.08.09a.32.32,0,0,0,.13,0l.16,0,.17,0,.2,0,.2.05.19.07.15.09a.49.49,0,0,1,.12.13.6.6,0,0,1,.08.16,1.23,1.23,0,0,1,0,.2.78.78,0,0,1,0,.28.57.57,0,0,1-.15.21.83.83,0,0,1-.22.14,1.38,1.38,0,0,1-.27.08,1.37,1.37,0,0,1-.29,0,1.46,1.46,0,0,1-.62-.12A.93.93,0,0,1,101,85.24Z" transform="translate(-55.17 -47.04)"/><path class="cls-3" d="M103.39,85.73V83.35h1.75v.37h-1.37v.64h1.32v.36h-1.32v.64h1.38v.37Z" transform="translate(-55.17 -47.04)"/><path class="cls-3" d="M105.64,85.73V83.34h1.11a1,1,0,0,1,.36.06.64.64,0,0,1,.27.18.78.78,0,0,1,.16.24,1,1,0,0,1,0,.3.73.73,0,0,1,0,.25,1.07,1.07,0,0,1-.1.22.6.6,0,0,1-.21.17.81.81,0,0,1-.3.1l.72.79,0,.07h-.45l-.72-.83H106v.83Zm.38-1.17h.73a.45.45,0,0,0,.34-.12.49.49,0,0,0,.11-.31.45.45,0,0,0,0-.16.34.34,0,0,0-.08-.14.39.39,0,0,0-.14-.1.59.59,0,0,0-.2,0H106Z" transform="translate(-55.17 -47.04)"/><path class="cls-3" d="M107.83,83.35h.43l.76,1.93.76-1.93h.43l-1,2.39h-.4Z" transform="translate(-55.17 -47.04)"/><path class="cls-3" d="M110.55,85.73V83.35h.38v2.38Z" transform="translate(-55.17 -47.04)"/><path class="cls-3" d="M111.38,84.56v0a1.47,1.47,0,0,1,0-.36,1,1,0,0,1,.15-.33,1.12,1.12,0,0,1,.25-.28,1,1,0,0,1,.35-.19,1.35,1.35,0,0,1,.46-.07,1.27,1.27,0,0,1,.47.09,1.18,1.18,0,0,1,.4.27l-.25.24a.88.88,0,0,0-.29-.18,1,1,0,0,0-.33-.06.93.93,0,0,0-.39.08.65.65,0,0,0-.28.2,1,1,0,0,0-.16.28,1.06,1.06,0,0,0,0,.31h0a1.07,1.07,0,0,0,0,.32,1,1,0,0,0,.16.28.79.79,0,0,0,.27.2,1.09,1.09,0,0,0,.74,0,.84.84,0,0,0,.29-.2l.26.27a1.23,1.23,0,0,1-.89.35,1.35,1.35,0,0,1-.46-.07,1.21,1.21,0,0,1-.36-.18,1.55,1.55,0,0,1-.24-.27,1.14,1.14,0,0,1-.15-.34A1.42,1.42,0,0,1,111.38,84.56Z" transform="translate(-55.17 -47.04)"/><path class="cls-3" d="M113.91,85.73V83.35h.39v2.38Z" transform="translate(-55.17 -47.04)"/><path class="cls-3" d="M114.74,84.55a1.24,1.24,0,0,1,.16-.64,1.16,1.16,0,0,1,.43-.45,1.35,1.35,0,0,1,.64-.16,1.56,1.56,0,0,1,.44.07,1.11,1.11,0,0,1,.34.19,1.55,1.55,0,0,1,.24.27,1.47,1.47,0,0,1,.15.34,1.58,1.58,0,0,1,0,.38,1.5,1.5,0,0,1,0,.37,1.14,1.14,0,0,1-.15.34,1.55,1.55,0,0,1-.24.27.89.89,0,0,1-.35.18,1.42,1.42,0,0,1-.88,0,1,1,0,0,1-.35-.18,1.31,1.31,0,0,1-.24-.28,1.22,1.22,0,0,1-.14-.33A1.5,1.5,0,0,1,114.74,84.55Zm.38,0a1,1,0,0,0,0,.25.64.64,0,0,0,.1.24.78.78,0,0,0,.16.2.69.69,0,0,0,.24.14,1,1,0,0,0,.31.05.92.92,0,0,0,.38-.08.57.57,0,0,0,.26-.19.76.76,0,0,0,.15-.28,1.14,1.14,0,0,0,0-.33,1.13,1.13,0,0,0,0-.32.8.8,0,0,0-.41-.5.87.87,0,0,0-.37-.08.79.79,0,0,0-.63.25A.93.93,0,0,0,115.12,84.55Z" transform="translate(-55.17 -47.04)"/><path class="cls-3" d="M117.44,85.24l.28-.19a.71.71,0,0,0,.32.3,1,1,0,0,0,.42.09h.18l.16,0a.61.61,0,0,0,.14-.07.27.27,0,0,0,.09-.12.24.24,0,0,0,0-.15.23.23,0,0,0,0-.14.39.39,0,0,0-.08-.1l-.13-.07-.17,0-.18,0-.2,0-.19,0-.18-.06-.15-.09a.6.6,0,0,1-.11-.12.53.53,0,0,1-.08-.15,1.23,1.23,0,0,1,0-.2.53.53,0,0,1,.08-.31.66.66,0,0,1,.22-.22.92.92,0,0,1,.29-.11,1.12,1.12,0,0,1,.32,0,1,1,0,0,1,.89.4l-.29.2a.54.54,0,0,0-.24-.2,1,1,0,0,0-.35-.07.67.67,0,0,0-.39.1.29.29,0,0,0-.16.27.27.27,0,0,0,0,.12l.08.09a.46.46,0,0,0,.14,0l.16,0,.17,0,.19,0a.84.84,0,0,1,.2.05l.19.07.16.09.12.13a.59.59,0,0,1,.07.16.64.64,0,0,1,0,.2.61.61,0,0,1-.06.28.47.47,0,0,1-.15.21.69.69,0,0,1-.22.14,1.12,1.12,0,0,1-.26.08,1.51,1.51,0,0,1-.3,0,1.41,1.41,0,0,1-.61-.12A.93.93,0,0,1,117.44,85.24Z" transform="translate(-55.17 -47.04)"/><path class="cls-3" d="M120.72,85.73V83.35h1.69v.37H121.1v.73h1.24v.35H121.1v.93Z" transform="translate(-55.17 -47.04)"/><path class="cls-3" d="M122.85,85.73V83.35h.39v2.38Z" transform="translate(-55.17 -47.04)"/><path class="cls-3" d="M123.83,85.73V83.35h.29L125.47,85V83.35h.38v2.38h-.29l-1.35-1.68v1.68Z" transform="translate(-55.17 -47.04)"/><path class="cls-3" d="M126.18,85.73l1.07-2.38h.42l1.07,2.38h-.41l-.22-.5h-1.3l-.22.5Zm.78-.85h1l-.51-1.13Z" transform="translate(-55.17 -47.04)"/><path class="cls-3" d="M129.07,85.73V83.35h.29L130.71,85V83.35h.38v2.38h-.29l-1.35-1.68v1.68Z" transform="translate(-55.17 -47.04)"/><path class="cls-3" d="M131.54,84.56v0a1.49,1.49,0,0,1,.05-.36,1,1,0,0,1,.15-.33,1.12,1.12,0,0,1,.25-.28.91.91,0,0,1,.35-.19,1.35,1.35,0,0,1,.46-.07,1.27,1.27,0,0,1,.47.09,1.18,1.18,0,0,1,.4.27l-.25.24a.88.88,0,0,0-.29-.18,1,1,0,0,0-.33-.06.93.93,0,0,0-.39.08.65.65,0,0,0-.28.2,1,1,0,0,0-.16.28,1.06,1.06,0,0,0-.05.31h0a1.07,1.07,0,0,0,.05.32,1,1,0,0,0,.16.28.79.79,0,0,0,.27.2,1.09,1.09,0,0,0,.74,0,.84.84,0,0,0,.29-.2l.26.27a1.23,1.23,0,0,1-.89.35,1.35,1.35,0,0,1-.46-.07,1.21,1.21,0,0,1-.36-.18,1.55,1.55,0,0,1-.24-.27,1.14,1.14,0,0,1-.15-.34A2.08,2.08,0,0,1,131.54,84.56Z" transform="translate(-55.17 -47.04)"/><path class="cls-3" d="M134.08,85.73V83.35h.38v2.38Z" transform="translate(-55.17 -47.04)"/><path class="cls-3" d="M135.06,85.73V83.35h1.75v.37h-1.37v.64h1.31v.36h-1.31v.64h1.38v.37Z" transform="translate(-55.17 -47.04)"/><path class="cls-3" d="M137.31,85.73V83.34h1.11a1,1,0,0,1,.36.06.64.64,0,0,1,.27.18.75.75,0,0,1,.15.24.77.77,0,0,1,.06.3.73.73,0,0,1,0,.25.76.76,0,0,1-.11.22.56.56,0,0,1-.2.17,1,1,0,0,1-.3.1l.71.79,0,.07h-.44l-.73-.83h-.5v.83Zm.38-1.17h.72a.44.44,0,0,0,.34-.12.45.45,0,0,0,.12-.31.45.45,0,0,0,0-.16.5.5,0,0,0-.08-.14.39.39,0,0,0-.14-.1.65.65,0,0,0-.2,0h-.73Z" transform="translate(-55.17 -47.04)"/><path class="cls-3" d="M139.61,84.55a1.35,1.35,0,0,1,.16-.64,1.12,1.12,0,0,1,.44-.45,1.28,1.28,0,0,1,.63-.16,1.56,1.56,0,0,1,.44.07,1.11,1.11,0,0,1,.34.19,1.22,1.22,0,0,1,.24.27,1.14,1.14,0,0,1,.15.34,1.58,1.58,0,0,1,.05.38,1.5,1.5,0,0,1-.05.37,1.14,1.14,0,0,1-.15.34,1,1,0,0,1-.24.27.92.92,0,0,1-.34.18,1.33,1.33,0,0,1-.45.07,1.23,1.23,0,0,1-.44-.07,1,1,0,0,1-.35-.18,1.31,1.31,0,0,1-.24-.28,1.22,1.22,0,0,1-.14-.33A1.5,1.5,0,0,1,139.61,84.55Zm.38,0a1,1,0,0,0,0,.25.64.64,0,0,0,.1.24.78.78,0,0,0,.16.2.69.69,0,0,0,.24.14,1,1,0,0,0,.31.05.92.92,0,0,0,.38-.08.57.57,0,0,0,.26-.19.76.76,0,0,0,.15-.28.88.88,0,0,0,0-.33.86.86,0,0,0,0-.32.8.8,0,0,0-.41-.5.87.87,0,0,0-.37-.08.79.79,0,0,0-.63.25A.93.93,0,0,0,140,84.55Z" transform="translate(-55.17 -47.04)"/><path class="cls-3" d="M142.31,85.24l.28-.19a.71.71,0,0,0,.32.3,1,1,0,0,0,.43.09h.17l.16,0a.61.61,0,0,0,.14-.07.27.27,0,0,0,.09-.12.24.24,0,0,0,0-.15.32.32,0,0,0,0-.14.43.43,0,0,0-.09-.1.4.4,0,0,0-.13-.07l-.17,0-.18,0-.2,0-.19,0-.18-.06-.15-.09-.11-.12a.53.53,0,0,1-.08-.15,1.23,1.23,0,0,1,0-.2.62.62,0,0,1,.08-.31.66.66,0,0,1,.22-.22.92.92,0,0,1,.29-.11,1.15,1.15,0,0,1,.33,0,.94.94,0,0,1,.88.4l-.29.2a.54.54,0,0,0-.24-.2.94.94,0,0,0-.34-.07.68.68,0,0,0-.4.1.29.29,0,0,0-.16.27.27.27,0,0,0,0,.12l.08.09a.46.46,0,0,0,.14,0l.16,0,.17,0,.19,0a.84.84,0,0,1,.2.05l.19.07.16.09a.49.49,0,0,1,.12.13.59.59,0,0,1,.07.16.64.64,0,0,1,0,.2.61.61,0,0,1-.06.28.41.41,0,0,1-.15.21.69.69,0,0,1-.22.14,1.12,1.12,0,0,1-.26.08,1.46,1.46,0,0,1-.3,0,1.41,1.41,0,0,1-.61-.12A.93.93,0,0,1,142.31,85.24Z" transform="translate(-55.17 -47.04)"/><path class="cls-3" d="M145.35,83.36h.45l.66,1.05.68-1.05h.46l-.95,1.39v1h-.38v-1Z" transform="translate(-55.17 -47.04)"/><path class="cls-3" d="M148.63,84.56v0a1.47,1.47,0,0,1,0-.36,1.66,1.66,0,0,1,.15-.33,1.12,1.12,0,0,1,.25-.28,1,1,0,0,1,.36-.19,1.29,1.29,0,0,1,.45-.07,1.27,1.27,0,0,1,.47.09,1.18,1.18,0,0,1,.4.27l-.25.24a.79.79,0,0,0-.29-.18.88.88,0,0,0-.33-.06,1,1,0,0,0-.39.08.65.65,0,0,0-.28.2,1,1,0,0,0-.16.28,1.06,1.06,0,0,0-.05.31h0a.83.83,0,0,0,.06.32.76.76,0,0,0,.15.28.75.75,0,0,0,.28.2.94.94,0,0,0,.39.07,1,1,0,0,0,.34-.06.88.88,0,0,0,.3-.2l.26.27a1.25,1.25,0,0,1-.9.35,1.35,1.35,0,0,1-.46-.07,1,1,0,0,1-.35-.18,1.27,1.27,0,0,1-.25-.27,1.11,1.11,0,0,1-.14-.34A1.08,1.08,0,0,1,148.63,84.56Z" transform="translate(-55.17 -47.04)"/><path class="cls-3" d="M151,84.55a1.34,1.34,0,0,1,.15-.64,1.19,1.19,0,0,1,.44-.45,1.35,1.35,0,0,1,.64-.16,1.49,1.49,0,0,1,.43.07,1.17,1.17,0,0,1,.35.19,1.55,1.55,0,0,1,.24.27,1.43,1.43,0,0,1,.14.34,1.58,1.58,0,0,1,.05.38,1.5,1.5,0,0,1-.05.37,1.43,1.43,0,0,1-.14.34,1.55,1.55,0,0,1-.24.27,1,1,0,0,1-.35.18,1.23,1.23,0,0,1-.44.07,1.33,1.33,0,0,1-.45-.07.92.92,0,0,1-.34-.18,1.08,1.08,0,0,1-.24-.28,1,1,0,0,1-.14-.33A1.14,1.14,0,0,1,151,84.55Zm.37,0a1.87,1.87,0,0,0,0,.25.85.85,0,0,0,.09.24.82.82,0,0,0,.17.2.74.74,0,0,0,.23.14,1.07,1.07,0,0,0,.32.05.92.92,0,0,0,.38-.08.63.63,0,0,0,.26-.19.94.94,0,0,0,.15-.28,1.14,1.14,0,0,0,.05-.33,1.13,1.13,0,0,0-.05-.32,1,1,0,0,0-.15-.29.77.77,0,0,0-.64-.29.77.77,0,0,0-.62.25A.94.94,0,0,0,151.39,84.55Z" transform="translate(-55.17 -47.04)"/><path class="cls-3" d="M153.91,85.73V83.35h.44l.79,1.12.78-1.12h.44v2.38H156V83.9L155.17,85h-.08l-.8-1.13v1.83Z" transform="translate(-55.17 -47.04)"/><path class="cls-3" d="M157,85.73V83.35h1.75v.37h-1.37v.64h1.32v.36h-1.32v.64h1.38v.37Z" transform="translate(-55.17 -47.04)"/><path class="cls-3" d="M159.21,85.73V83.34h1.11a1,1,0,0,1,.36.06.64.64,0,0,1,.27.18.78.78,0,0,1,.16.24,1,1,0,0,1,0,.3,1.07,1.07,0,0,1,0,.25,2.26,2.26,0,0,1-.11.22.6.6,0,0,1-.21.17.81.81,0,0,1-.3.1l.72.79,0,.07h-.45l-.72-.83h-.51v.83Zm.38-1.17h.73a.45.45,0,0,0,.34-.12.49.49,0,0,0,.11-.31.45.45,0,0,0,0-.16.34.34,0,0,0-.08-.14.39.39,0,0,0-.14-.1.59.59,0,0,0-.2,0h-.73Z" transform="translate(-55.17 -47.04)"/><path class="cls-3" d="M161.52,84.56v0a1.47,1.47,0,0,1,0-.36,1.24,1.24,0,0,1,.15-.33,1.12,1.12,0,0,1,.25-.28,1,1,0,0,1,.35-.19,1.39,1.39,0,0,1,.46-.07,1.27,1.27,0,0,1,.47.09,1.18,1.18,0,0,1,.4.27l-.25.24a.79.79,0,0,0-.29-.18.88.88,0,0,0-.33-.06,1,1,0,0,0-.39.08.65.65,0,0,0-.28.2,1,1,0,0,0-.16.28,1.06,1.06,0,0,0-.05.31h0a.83.83,0,0,0,.06.32.76.76,0,0,0,.15.28.75.75,0,0,0,.28.2.94.94,0,0,0,.39.07,1,1,0,0,0,.34-.06.84.84,0,0,0,.29-.2l.27.27a1.25,1.25,0,0,1-.9.35,1.35,1.35,0,0,1-.46-.07,1,1,0,0,1-.35-.18,1.27,1.27,0,0,1-.25-.27,1.47,1.47,0,0,1-.15-.34A1.42,1.42,0,0,1,161.52,84.56Z" transform="translate(-55.17 -47.04)"/><path class="cls-3" d="M164.05,85.73V83.35h.39v2.38Z" transform="translate(-55.17 -47.04)"/><path class="cls-3" d="M164.76,85.73l1.07-2.38h.41l1.07,2.38h-.4l-.23-.5h-1.29l-.22.5Zm.77-.85h1l-.5-1.13Z" transform="translate(-55.17 -47.04)"/><path class="cls-3" d="M167.64,85.73V83.35H168v2h1.25v.35Z" transform="translate(-55.17 -47.04)"/><path class="cls-3" d="M169.64,85.73V83.35h1.75v.37H170v.64h1.32v.36H170v.64h1.38v.37Z" transform="translate(-55.17 -47.04)"/><path class="cls-3" d="M171.69,85.24l.29-.19a.71.71,0,0,0,.32.3,1,1,0,0,0,.42.09h.18l.16,0a.61.61,0,0,0,.14-.07.38.38,0,0,0,.09-.12.33.33,0,0,0,0-.15.33.33,0,0,0,0-.14.39.39,0,0,0-.08-.1l-.14-.07-.16,0-.19,0-.19,0-.19,0-.19-.06-.14-.09-.12-.12a.52.52,0,0,1-.07-.15.64.64,0,0,1,0-.2.66.66,0,0,1,.3-.53,1,1,0,0,1,.3-.11,1.12,1.12,0,0,1,.32,0,1,1,0,0,1,.89.4l-.29.2a.6.6,0,0,0-.24-.2,1,1,0,0,0-.35-.07.72.72,0,0,0-.4.1.29.29,0,0,0-.15.27.27.27,0,0,0,0,.12l.08.09a.38.38,0,0,0,.14,0l.15,0,.18,0,.19,0a.84.84,0,0,1,.2.05l.19.07.15.09a.49.49,0,0,1,.12.13.4.4,0,0,1,.08.16.64.64,0,0,1,0,.2.61.61,0,0,1-.06.28.57.57,0,0,1-.15.21.69.69,0,0,1-.22.14,1.07,1.07,0,0,1-.27.08,1.37,1.37,0,0,1-.29,0,1.41,1.41,0,0,1-.61-.12A1,1,0,0,1,171.69,85.24Z" transform="translate(-55.17 -47.04)"/><line class="cls-4" x1="38.4" y1="33.67" x2="129.59" y2="33.67"/></svg>