<svg height="512pt" viewBox="0 -81 512.00041 512" width="512pt" xmlns="http://www.w3.org/2000/svg"><path d="m407.746094 140.667969v92.65625l-137.609375 54.773437-137.609375-54.773437v-92.65625l137.609375 55.097656zm0 0" fill="#adaaaf"/><path d="m502 102.835938-94.253906 37.738281-137.609375 55.097656-137.609375-55.097656-94.25-37.738281 231.859375-92.835938zm0 0" fill="#c6c4c8"/><path d="m293.699219 102.835938c0-12.816407-10.546875-23.207032-23.5625-23.207032-13.011719 0-23.5625 10.390625-23.5625 23.207032 0 12.816406 10.550781 23.210937 23.5625 23.210937 13.015625 0 23.5625-10.394531 23.5625-23.210937zm0 0" fill="#ffbd5a"/><path d="m57.164062 340h-37.777343c-5.164063 0-9.386719-4.222656-9.386719-9.386719v-55.289062c0-15.488281 12.671875-28.160157 28.160156-28.160157h.230469c15.488281 0 28.160156 12.671876 28.160156 28.160157v55.289062c0 5.164063-4.222656 9.386719-9.386719 9.386719zm0 0" fill="#ffbd5a"/><path d="m511.972656 102.082031c-.296875-3.558593-2.726562-7.355469-6.25-8.53125l-231.871094-92.832031c-2.382812-.957031-5.042968-.957031-7.429687 0l-231.863281 92.832031c-3.777344 1.257813-6.277344 5.40625-6.277344 9.289063v135.621094c-16.269531 4.359374-28.28125 19.238281-28.28125 36.859374v55.289063c0 10.691406 8.699219 19.390625 19.390625 19.390625h37.78125c10.679687 0 19.378906-8.699219 19.378906-19.390625v-55.289063c0-17.621093-12.011719-32.488281-28.269531-36.859374v-120.851563l74.25 29.730469v85.980468c0 4.101563 2.5 7.78125 6.296875 9.289063l137.613281 54.78125c1.1875.46875 2.4375.710937 3.699219.710937 1.25 0 2.507813-.242187 3.699219-.710937l137.609375-54.78125c3.800781-1.507813 6.300781-5.1875 6.300781-9.289063v-85.980468l87.691406-35.109375c4.167969-1.390625 6.875-5.851563 6.53125-10.148438-.03125-.363281.019532.25 0 0-.296875-3.558593.019532.25 0 0zm-455.421875 173.238281v54.679688h-36.550781v-54.679688c0-10.011718 8.148438-18.160156 18.160156-18.160156h.230469c10.007813 0 18.160156 8.148438 18.160156 18.160156zm341.199219-48.78125-127.609375 50.792969-127.609375-50.792969v-71.097656l123.890625 49.609375c2.386719.949219 5.046875.949219 7.429687 0l123.898438-49.609375zm-127.609375-41.640624-179.980469-72.058594h147.96875c4.300782 13.441406 17.019532 23.210937 32.011719 23.210937 18.5 0 33.558594-14.902343 33.558594-33.210937 0-18.320313-15.058594-33.210938-33.558594-33.210938-14.992187 0-27.710937 9.769532-32.011719 23.210938h-147.980468l179.992187-72.070313 179.988281 72.070313h-81.488281c-5.53125 0-10 4.46875-10 10 0 5.519531 4.46875 10 10 10h81.480469zm-13.5625-82.058594c0-7.289063 6.082031-13.210938 13.5625-13.210938s13.558594 5.921875 13.558594 13.210938c0 7.28125-6.078125 13.210937-13.558594 13.210937s-13.5625-5.929687-13.5625-13.210937zm0 0"/><path d="m333.828125 112.835938c-5.519531 0-10.003906-4.476563-10.003906-10 0-5.519532 4.472656-10 9.996093-10h.007813c5.523437 0 10 4.480468 10 10 0 5.523437-4.476563 10-10 10zm0 0"/></svg>