<?xml version="1.0" encoding="iso-8859-1"?>
<!-- Generator: Adobe Illustrator 19.0.0, SVG Export Plug-In . SVG Version: 6.00 Build 0)  -->
<svg version="1.1" id="Capa_1" xmlns="http://www.w3.org/2000/svg" xmlns:xlink="http://www.w3.org/1999/xlink" x="0px" y="0px"
	 viewBox="0 0 512 512" style="enable-background:new 0 0 512 512;" xml:space="preserve">
<path style="fill:#E0E0D1;" d="M491.165,400.08H20.835c-7.362,0-13.329-5.968-13.329-13.329V69.28
	c0-7.362,5.968-13.329,13.329-13.329h470.33c7.362,0,13.329,5.968,13.329,13.329v317.47
	C504.494,394.112,498.526,400.08,491.165,400.08z"/>
<path style="fill:#CECEC0;" d="M491.165,55.951h-31.318v311.785c0,7.362-5.968,13.33-13.329,13.33H7.506v5.685
	c0,7.362,5.968,13.33,13.329,13.33h470.33c7.362,0,13.329-5.968,13.329-13.33V69.28C504.494,61.919,498.526,55.951,491.165,55.951z"
	/>
<path style="fill:#FFFFFF;" d="M466.723,326.73c0.006,0,0.012,0,0.018,0c0.974,0.001,1.77-0.773,1.77-1.746V131.048
	c0-0.974-0.796-1.747-1.77-1.746c-0.006,0-0.012,0-0.018,0c-19.268,0-34.988-15.186-35.846-34.242
	c-0.042-0.923-0.817-1.642-1.741-1.642H81.076c-0.924,0-1.699,0.719-1.741,1.642c-0.833,18.512-15.693,33.371-34.205,34.205
	c-0.923,0.042-1.642,0.817-1.642,1.741v194.021c0,0.924,0.719,1.699,1.642,1.741c18.512,0.833,33.371,15.693,34.205,34.205
	c0.042,0.923,0.817,1.642,1.741,1.642h348.06c0.924,0,1.699-0.719,1.741-1.642C431.735,341.915,447.456,326.73,466.723,326.73z"/>
<path style="fill:#F2F2F2;" d="M466.741,129.301c-0.006,0-0.012,0-0.018,0c-19.267,0-34.988-15.186-35.846-34.242
	c-0.042-0.923-0.817-1.642-1.741-1.642h-45.034c0.924,0,1.699,0.719,1.741,1.642c0.858,19.056,16.578,34.242,35.846,34.242
	c0.006,0,0.012,0,0.018,0c0.974,0,1.769,0.773,1.769,1.746v193.936c0,0.974-0.796,1.747-1.769,1.746c-0.006,0-0.012,0-0.018,0
	c-19.267,0-34.988,15.186-35.846,34.242c-0.042,0.923-0.817,1.642-1.741,1.642h45.034c0.924,0,1.699-0.719,1.741-1.642
	c0.858-19.056,16.578-34.242,35.846-34.242c0.006,0,0.012,0,0.018,0c0.974,0,1.769-0.773,1.769-1.746V131.048
	C468.511,130.074,467.715,129.301,466.741,129.301z"/>
<path style="fill:#61AFF6;" d="M372.948,455.371l-13.713-22.511c-0.298-0.489-0.862-0.75-1.428-0.659l-24.808,3.989
	c-1.122,0.18-1.986-0.973-1.496-1.999l37.044-77.625l43.959,20.978l-37.08,77.701C374.943,456.256,373.531,456.328,372.948,455.371z
	"/>
<path style="fill:#49A0E8;" d="M431.701,455.371l13.713-22.511c0.298-0.489,0.862-0.75,1.428-0.659l24.808,3.989
	c1.122,0.18,1.986-0.973,1.496-1.999l-37.044-77.625l-43.959,20.978l37.08,77.701C429.707,456.256,431.118,456.328,431.701,455.371z
	"/>
<path style="fill:#FF4C4C;" d="M413.466,266.459L413.466,266.459c3.761,2.674,8.359,3.906,12.953,3.471l0,0
	c8.148-0.771,15.891,3.699,19.297,11.141l0,0c1.921,4.196,5.286,7.562,9.482,9.482l0,0c7.442,3.406,11.912,11.149,11.141,19.297l0,0
	c-0.435,4.594,0.797,9.192,3.471,12.953l0,0c4.742,6.671,4.742,15.612,0,22.283l0,0c-2.674,3.761-3.906,8.359-3.471,12.953l0,0
	c0.771,8.148-3.699,15.891-11.141,19.297l0,0c-4.196,1.921-7.562,5.286-9.482,9.482l0,0c-3.406,7.442-11.149,11.912-19.297,11.141
	l0,0c-4.594-0.435-9.192,0.797-12.953,3.471l0,0c-6.671,4.742-15.612,4.742-22.283,0l0,0c-3.761-2.674-8.359-3.906-12.953-3.471l0,0
	c-8.148,0.771-15.891-3.699-19.297-11.141l0,0c-1.921-4.196-5.286-7.562-9.482-9.482l0,0c-7.442-3.406-11.912-11.149-11.141-19.297
	l0,0c0.435-4.594-0.797-9.192-3.471-12.953l0,0c-4.742-6.671-4.742-15.612,0-22.283l0,0c2.674-3.761,3.906-8.359,3.471-12.953l0,0
	c-0.771-8.148,3.699-15.891,11.141-19.297l0,0c4.196-1.921,7.562-5.286,9.482-9.482l0,0c3.406-7.442,11.149-11.912,19.297-11.141
	l0,0c4.594,0.435,9.192-0.797,12.953-3.471l0,0C397.854,261.717,406.795,261.717,413.466,266.459z"/>
<g>
	<path style="fill:#EA2828;" d="M377.517,397.999c0.238-0.014,0.475-0.017,0.713-0.039l0,0c0.526-0.05,1.052-0.072,1.578-0.078
		C379.04,397.873,378.276,397.918,377.517,397.999z"/>
	<path style="fill:#EA2828;" d="M379.808,270.008c-0.525-0.006-1.051-0.029-1.578-0.078l0,0c-0.239-0.023-0.475-0.026-0.713-0.039
		C378.276,269.972,379.04,270.017,379.808,270.008z"/>
	<path style="fill:#EA2828;" d="M469.811,322.803c-2.674-3.761-3.906-8.359-3.471-12.953c0.771-8.148-3.699-15.891-11.141-19.297
		c-4.196-1.921-7.562-5.286-9.482-9.482l0,0c-3.406-7.442-11.15-11.912-19.297-11.141c-4.594,0.435-9.192-0.797-12.953-3.471
		c-6.671-4.742-15.612-4.742-22.283,0l0,0c-2.7,1.919-5.834,3.081-9.085,3.432c7.883-0.452,15.277,3.957,18.584,11.18l0,0
		c1.92,4.196,5.286,7.562,9.482,9.482c7.442,3.406,11.912,11.149,11.141,19.297c-0.435,4.594,0.797,9.192,3.471,12.953
		c4.742,6.671,4.742,15.612,0,22.283c-2.674,3.761-3.906,8.359-3.471,12.953c0.771,8.148-3.699,15.891-11.141,19.297
		c-4.196,1.921-7.562,5.286-9.482,9.482l0,0c-3.306,7.224-10.701,11.633-18.584,11.181c3.251,0.35,6.385,1.512,9.085,3.432l0,0
		c6.671,4.742,15.612,4.742,22.283,0l0,0c3.761-2.674,8.359-3.906,12.953-3.471c8.148,0.771,15.891-3.699,19.297-11.141l0,0
		c1.92-4.196,5.286-7.562,9.482-9.482c7.442-3.406,11.912-11.149,11.141-19.297c-0.435-4.594,0.797-9.192,3.471-12.953
		C474.553,338.415,474.553,329.474,469.811,322.803z"/>
</g>
<circle style="fill:#FFB125;" cx="401.78" cy="333.949" r="39.13"/>
<path style="fill:#FF901D;" d="M401.777,294.817c-9.265,0-17.772,3.227-24.475,8.61c8.931,7.171,14.653,18.174,14.653,30.518
	c0,12.345-5.722,23.347-14.653,30.519c6.703,5.382,15.21,8.61,24.475,8.61c21.61,0,39.128-17.518,39.128-39.128
	C440.905,312.335,423.386,294.817,401.777,294.817z"/>
<path d="M401.777,137.141H110.223c-4.146,0-7.506,3.36-7.506,7.506s3.36,7.506,7.506,7.506h291.554c4.146,0,7.506-3.36,7.506-7.506
	S405.923,137.141,401.777,137.141z"/>
<path d="M401.777,218.869H110.223c-4.146,0-7.506,3.36-7.506,7.506c0,4.145,3.36,7.506,7.506,7.506h291.554
	c4.146,0,7.506-3.36,7.506-7.506S405.923,218.869,401.777,218.869z"/>
<path d="M306.193,271.909H205.807c-4.146,0-7.506,3.36-7.506,7.506c0,4.145,3.36,7.506,7.506,7.506h100.386
	c4.146,0,7.506-3.36,7.506-7.506S310.339,271.909,306.193,271.909z"/>
<path d="M401.777,177.838H184.303c-4.146,0-7.506,3.36-7.506,7.506c0,4.145,3.36,7.506,7.506,7.506h217.474
	c4.146,0,7.506-3.36,7.506-7.506S405.923,177.838,401.777,177.838z"/>
<path d="M110.223,192.849h39.158c4.146,0,7.506-3.36,7.506-7.506c0-4.145-3.36-7.506-7.506-7.506h-39.158
	c-4.146,0-7.506,3.36-7.506,7.506C102.717,189.489,106.077,192.849,110.223,192.849z"/>
<path d="M466.729,121.796c-0.002,0-0.003,0-0.005,0c-15.213,0-27.664-11.892-28.349-27.078c-0.225-4.938-4.283-8.805-9.238-8.805
	H81.077c-4.956,0-9.015,3.868-9.239,8.81c-0.653,14.511-12.532,26.391-27.044,27.044c-4.94,0.222-8.809,4.281-8.809,9.239v194.021
	c0,4.958,3.869,9.016,8.809,9.238c14.512,0.654,26.391,12.533,27.044,27.049c0.225,4.938,4.284,8.805,9.239,8.805h221.577
	c4.146,0,7.506-3.36,7.506-7.506c0-4.145-3.36-7.506-7.506-7.506H86.239c-3.103-18.079-17.164-32.14-35.243-35.244V136.167
	c18.079-3.103,32.14-17.167,35.243-35.243h337.739c3.23,18.65,18.245,33.046,37.026,35.51v127.469c0,4.145,3.36,7.506,7.506,7.506
	c4.146,0,7.506-3.36,7.506-7.506V131.048c0-2.499-0.982-4.841-2.765-6.593C471.505,122.74,469.194,121.796,466.729,121.796z"/>
<path d="M491.165,48.445H20.835C9.347,48.445,0,57.792,0,69.28v317.47c0,11.489,9.347,20.835,20.835,20.835h315.048l-11.154,23.373
	c-1.433,3.001-1.084,6.52,0.908,9.182c1.993,2.663,5.272,3.986,8.553,3.461l20.766-3.338l11.583,19.013
	c1.624,2.668,4.51,4.278,7.611,4.278c0.151,0,0.303-0.004,0.455-0.012c3.272-0.166,6.181-2.106,7.594-5.064l20.126-42.173
	l20.124,42.17c1.41,2.958,4.319,4.9,7.592,5.068c0.153,0.008,0.307,0.012,0.459,0.012c3.101,0,5.987-1.61,7.611-4.277l11.583-19.013
	l20.766,3.339c3.291,0.526,6.564-0.801,8.555-3.465c1.992-2.664,2.338-6.182,0.905-9.178l-11.154-23.373h22.399
	c11.488,0,20.835-9.346,20.835-20.835V69.28C512,57.792,502.653,48.445,491.165,48.445z M373.501,441.85l-7.857-12.895
	c-1.892-3.106-5.434-4.74-9.028-4.163l-13.334,2.144l14.046-29.432c5.536,5.649,13.423,8.701,21.61,7.93
	c2.799-0.268,5.605,0.486,7.898,2.115c0.756,0.538,1.541,1.015,2.336,1.465L373.501,441.85z M404.115,397.342
	c-0.023,0.003-0.046,0.005-0.07,0.009c-1.138,0.168-2.295,0.168-3.433,0.001c-0.029-0.004-0.058-0.007-0.086-0.011
	c-1.763-0.273-3.477-0.948-4.995-2.027c-4.54-3.228-9.961-4.944-15.491-4.944c-0.838,0-1.678,0.04-2.518,0.119
	c-4.969,0.469-9.69-2.26-11.764-6.792c-0.921-2.012-2.096-3.874-3.46-5.577c-0.06-0.085-0.126-0.165-0.189-0.247
	c-0.076-0.092-0.147-0.187-0.223-0.278c-0.087-0.102-0.178-0.199-0.271-0.296c-2.482-2.856-5.549-5.188-9.042-6.786
	c-4.533-2.074-7.262-6.802-6.792-11.765c0.604-6.386-1.109-12.782-4.825-18.009c-2.889-4.063-2.889-9.522-0.001-13.585
	c3.717-5.227,5.43-11.623,4.826-18.009c-0.47-4.963,2.26-9.691,6.792-11.765c5.833-2.669,10.515-7.351,13.184-13.184
	c2.075-4.533,6.813-7.263,11.765-6.792c6.393,0.603,12.783-1.11,18.01-4.826c4.064-2.888,9.523-2.888,13.585,0
	c5.228,3.716,11.619,5.425,18.01,4.826c4.967-0.472,9.692,2.26,11.766,6.792c2.669,5.833,7.351,10.515,13.183,13.183
	c4.533,2.075,7.263,6.803,6.793,11.765c-0.604,6.387,1.109,12.783,4.825,18.009c2.889,4.063,2.889,9.522,0,13.585
	c-3.716,5.228-5.429,11.624-4.825,18.009c0.47,4.963-2.26,9.691-6.794,11.766c-3.485,1.595-6.545,3.921-9.024,6.768
	c-0.102,0.106-0.202,0.213-0.296,0.324c-0.065,0.078-0.126,0.159-0.191,0.238c-0.075,0.096-0.151,0.19-0.221,0.289
	c-1.36,1.7-2.532,3.558-3.45,5.565c-2.075,4.532-6.803,7.263-11.766,6.792c-6.38-0.601-12.78,1.109-18.01,4.825
	C407.597,396.394,405.881,397.07,404.115,397.342z M448.033,424.791c-3.595-0.575-7.135,1.058-9.028,4.165l-7.856,12.895
	l-15.671-32.837c0.795-0.45,1.579-0.927,2.336-1.465c2.294-1.63,5.102-2.386,7.898-2.116c8.19,0.772,16.075-2.28,21.611-7.929
	l14.045,29.431L448.033,424.791z M496.989,386.751c0,3.211-2.612,5.824-5.824,5.824h-29.563l-3.87-8.11
	c0.195-0.103,0.389-0.211,0.591-0.303c10.336-4.731,16.561-15.513,15.49-26.829c-0.265-2.8,0.486-5.605,2.116-7.898
	c6.586-9.265,6.586-21.715-0.001-30.98c-1.629-2.292-2.38-5.096-2.115-7.897c1.071-11.316-5.154-22.098-15.491-26.829
	c-2.557-1.171-4.61-3.224-5.781-5.781c-4.73-10.337-15.517-16.56-26.83-15.49c-2.802,0.267-5.605-0.486-7.897-2.116
	c-9.265-6.586-21.716-6.587-30.98,0c-2.293,1.63-5.104,2.383-7.897,2.115c-11.33-1.066-22.1,5.154-26.829,15.49
	c-1.171,2.558-3.224,4.61-5.782,5.781c-10.336,4.731-16.561,15.512-15.49,26.829c0.265,2.801-0.486,5.605-2.116,7.898
	c-6.586,9.265-6.586,21.715,0,30.979c1.63,2.292,2.381,5.097,2.116,7.898c-1.071,11.317,5.154,22.099,15.49,26.829
	c0.202,0.092,0.395,0.2,0.59,0.303l-3.87,8.111H20.835c-3.211,0-5.824-2.612-5.824-5.824V69.28c0-3.211,2.612-5.824,5.824-5.824
	h470.33c3.211,0,5.824,2.613,5.824,5.824L496.989,386.751L496.989,386.751z"/>
<path d="M448.41,333.945c0-25.714-20.919-46.633-46.633-46.633s-46.634,20.92-46.634,46.633c0,25.714,20.92,46.634,46.634,46.634
	S448.41,359.658,448.41,333.945z M401.777,365.567c-17.437,0-31.623-14.186-31.623-31.623c0-17.436,14.186-31.622,31.623-31.622
	c17.436,0,31.622,14.186,31.622,31.622C433.399,351.381,419.213,365.567,401.777,365.567z"/>
<g>
</g>
<g>
</g>
<g>
</g>
<g>
</g>
<g>
</g>
<g>
</g>
<g>
</g>
<g>
</g>
<g>
</g>
<g>
</g>
<g>
</g>
<g>
</g>
<g>
</g>
<g>
</g>
<g>
</g>
</svg>
