<!-- Generator: Adobe Illustrator 21.1.0, SVG Export Plug-In  -->
<svg version="1.1"
	 xmlns="http://www.w3.org/2000/svg" xmlns:xlink="http://www.w3.org/1999/xlink" xmlns:a="http://ns.adobe.com/AdobeSVGViewerExtensions/3.0/"
	 x="0px" y="0px" width="73.4px" height="48.1px" viewBox="0 0 73.4 48.1" style="enable-background:new 0 0 73.4 48.1;"
	 xml:space="preserve">
<style type="text/css">
	.st0{fill:#FDFDFD;}
</style>
<defs>
</defs>
<g>
	<path class="st0" d="M7.7,21.6c-2.6-1-5.1-2-7.7-3c0.3-0.8,1-0.9,1.6-1.3C12,11.8,22.3,6.3,32.7,0.7c1-0.5,1.9-1,3.2-0.4
		c12.3,6,24.6,11.9,37,17.8c0.2,0.1,0.3,0.2,0.6,0.5c-4.9,1.6-9.6,3.2-14.3,4.8c-1.2,0.4-1.7-0.3-2.2-1.2
		c-8.4-12.1-33.4-11.6-40.7,0.7c-1.1,1.9-2.3,0.8-3.3,0.4c-2.1-0.9-2.9-0.8-2.9,1.9c0,3.2,0.7,6.3,0.9,9.4c0.1,0.9,0.1,1.9-0.2,2.8
		c-0.3,0.8-0.4,1.4-1.5,1.4c-1.1,0-1.5-0.4-1.7-1.4c-0.4-2-0.2-4,0.2-5.9C8.2,28.2,8.3,24.9,7.7,21.6c1.3,0.5,2.3,0.6,2.2-1.4
		c-0.1-1.7,0-3.4,0-5.1c-1.7-0.1-2.4,0.6-2.3,2.2C7.8,18.8,7.7,20.2,7.7,21.6z"/>
	<path class="st0" d="M56.8,37.2c-10-10.2-31.7-9.5-39.9-0.4c-2.6-8.1,0-14.6,7.7-17.8c8.1-3.5,16.4-3.4,24.5,0.2
		c5.2,2.3,8.3,6,7.8,12.1C56.7,33,56.8,34.8,56.8,37.2z"/>
	<path class="st0" d="M35.8,31.9c5.5,0,10,0.7,14.2,2.8c1.4,0.7,2.6,1.6,3.7,2.6c2.2,2.2,2.2,3.4-0.2,5.4c-6,4.9-13.1,5.9-20.6,5.2
		c-4.6-0.5-9-1.8-12.7-4.8c-3-2.4-3-3.9,0-6.3c3.6-3,7.9-4.1,12.4-4.6C34,31.9,35.3,31.9,35.8,31.9z"/>
</g>
</svg>
