<?xml version="1.0" encoding="utf-8"?>
<!-- Generator: Adobe Illustrator 21.1.0, SVG Export Plug-In . SVG Version: 6.00 Build 0)  -->
<svg version="1.1" id="Layer_1" xmlns="http://www.w3.org/2000/svg" xmlns:xlink="http://www.w3.org/1999/xlink" x="0px" y="0px"
	 viewBox="0 0 382 382" style="enable-background:new 0 0 382 382;" xml:space="preserve">
<style type="text/css">
	.st0{fill:#FFFFFF;stroke:#000000;stroke-width:0.5818;stroke-miterlimit:10;}
	.st1{fill:#0077B7;}
</style>
<g>
	<path class="st0" d="M155.8,339.9h44.4c5.1,0,9.2-4.1,9.2-9.2v-97.1c1.2-13,6.9-42.1,35.2-42.1c36.5,0,32.8,42.5,32.8,55v84.2
		c0,5.1,4.1,9.2,9.2,9.2h45.9c5.1,0,9.2-4.1,9.2-9.2v-86.8c0-37.8,0.4-106.5-73.1-106.5c-33.2,0-48.8,12.2-59.3,27.9v-15.7
		c0-5.1-4.1-9.2-9.2-9.2h-44.4c-5.1,0-9.2,4.1-9.2,9.2v181.1C146.5,335.8,150.7,339.9,155.8,339.9z"/>
	<circle class="st0" cx="86.7" cy="82.8" r="40.7"/>
	<path class="st0" d="M108.2,140.3H65.3c-5.6,0-10.1,4.5-10.1,10.1v179.4c0,5.6,4.5,10.1,10.1,10.1h42.8c5.6,0,10.1-4.5,10.1-10.1
		V150.4C118.2,144.8,113.7,140.3,108.2,140.3z"/>
	<path class="st1" d="M347.4,0H34.6C15.5,0,0,15.5,0,34.6v312.9C0,366.5,15.5,382,34.6,382h312.9c19.1,0,34.6-15.5,34.6-34.6V34.6
		C382,15.5,366.5,0,347.4,0z M86.7,123.4c-22.5,0-40.7-18.2-40.7-40.7c0-22.5,18.2-40.7,40.7-40.7c22.5,0,40.7,18.2,40.7,40.7
		C127.4,105.2,109.2,123.4,86.7,123.4z M118.2,150.4v179.4c0,5.6-4.5,10.1-10.1,10.1H65.3c-5.6,0-10.1-4.5-10.1-10.1V150.4
		c0-5.6,4.5-10.1,10.1-10.1h42.8C113.7,140.3,118.2,144.8,118.2,150.4z M341.9,330.7c0,5.1-4.1,9.2-9.2,9.2h-45.9
		c-5.1,0-9.2-4.1-9.2-9.2v-84.2c0-12.6,3.7-55-32.8-55c-28.3,0-34.1,29.1-35.2,42.1v97.1c0,5.1-4.1,9.2-9.2,9.2h-44.4
		c-5.1,0-9.2-4.1-9.2-9.2V149.6c0-5.1,4.1-9.2,9.2-9.2h44.4c5.1,0,9.2,4.1,9.2,9.2v15.7c10.5-15.8,26.1-27.9,59.3-27.9
		c73.6,0,73.1,68.7,73.1,106.5V330.7z"/>
</g>
</svg>
