<!-- Generator: Adobe Illustrator 25.2.3, SVG Export Plug-In  -->
<svg version="1.1" xmlns="http://www.w3.org/2000/svg" xmlns:xlink="http://www.w3.org/1999/xlink" x="0px" y="0px"
	 width="131.01px" height="131.02px" viewBox="0 0 131.01 131.02"
	 style="overflow:visible;enable-background:new 0 0 131.01 131.02;" xml:space="preserve">
<style type="text/css">
	.st0{fill:#ECEFF1;}
	.st1{fill:#607D8B;}
	.st2{fill:#FFFFFF;}
	.st3{fill:#DEDEDE;}
	.st4{fill:#546D79;}
	.st5{fill:#90A4AE;}
	.st6{fill:#CDD0D2;}
	.st7{fill:#7D8F97;}
	.st8{fill:#3A5569;}
	.st9{fill:#637888;}
	.st10{fill:#FEC656;}
</style>
<defs>
</defs>
<g>
	<path class="st0" d="M57.32,92.8c0-19.56,15.92-35.48,35.48-35.48V15.01C92.8,6.73,86.07,0,77.79,0H15.01C6.73,0,0,6.73,0,15.01
		v84.61c0,8.28,6.73,15.01,15.01,15.01h49.88C60.16,108.61,57.32,101.04,57.32,92.8z"/>
	<path class="st1" d="M129.81,124.03l-15.1-15.1c3.35-4.53,5.39-10.07,5.39-16.12c0-15.05-12.24-27.29-27.29-27.29
		S65.51,77.75,65.51,92.8s12.24,27.29,27.29,27.29c6.05,0,11.59-2.04,16.12-5.38l15.1,15.1c1.6,1.6,4.19,1.6,5.79,0
		C131.42,128.22,131.41,125.62,129.81,124.03z M73.69,92.8c0-10.54,8.57-19.11,19.11-19.11s19.11,8.57,19.11,19.11
		s-8.57,19.11-19.11,19.11S73.69,103.34,73.69,92.8L73.69,92.8z"/>
	<path class="st2" d="M92.8,111.91c-10.54,0-19.11-8.57-19.11-19.11s8.57-19.11,19.11-19.11s19.11,8.57,19.11,19.11
		S103.34,111.91,92.8,111.91z"/>
	<path class="st3" d="M79.3,79.3c-3.46,3.46-5.6,8.24-5.6,13.51c0,10.54,8.57,19.11,19.11,19.11c5.27,0,10.04-2.15,13.51-5.6
		L79.3,79.3z"/>
	<path class="st4" d="M73.51,73.51c-4.94,4.95-8,11.77-8,19.29c0,15.05,12.24,27.29,27.29,27.29c6.05,0,11.59-2.04,16.12-5.38
		l15.1,15.1c0.8,0.8,1.85,1.2,2.89,1.2c1.05,0,2.1-0.4,2.89-1.2l-23.51-23.51c-3.46,3.46-8.23,5.6-13.5,5.6
		c-10.54,0-19.11-8.57-19.11-19.11c0-5.27,2.15-10.04,5.6-13.51L73.51,73.51z"/>
	<g>
		<path class="st5" d="M64.23,65.6H28.7c-2.26,0-4.1-1.84-4.1-4.1v-2.73c0-8.29,6.74-15.03,15.03-15.03H53.3
			c8.29,0,15.03,6.74,15.03,15.03v2.73C68.33,63.76,66.5,65.6,64.23,65.6z"/>
		<path class="st5" d="M49.2,82H27.33c-3.02,0-5.47-2.45-5.47-5.47c0-3.02,2.45-5.47,5.47-5.47H49.2c3.02,0,5.47,2.45,5.47,5.47
			C54.67,79.55,52.22,82,49.2,82z"/>
		<path class="st5" d="M46.58,98.4H27.33c-3.02,0-5.47-2.45-5.47-5.47c0-3.02,2.45-5.47,5.47-5.47h19.24c3.02,0,5.47,2.45,5.47,5.47
			C52.04,95.95,49.59,98.4,46.58,98.4z"/>
		<path class="st6" d="M46.47,0H15.03C6.74,0,0,6.74,0,15.03v84.73c0,8.29,6.74,15.03,15.03,15.03h31.43V98.4H27.33
			c-3.02,0-5.47-2.45-5.47-5.47c0-3.02,2.45-5.47,5.47-5.47h19.13V82H27.33c-3.02,0-5.47-2.45-5.47-5.47c0-3.02,2.45-5.47,5.47-5.47
			h19.13V65.6H28.7c-2.26,0-4.1-1.84-4.1-4.1v-2.73c0-8.29,6.74-15.03,15.03-15.03h6.83v-5.47c-6.03,0-10.93-4.9-10.93-10.93
			s4.9-10.93,10.93-10.93V0z"/>
		<g>
			<path class="st7" d="M46.47,43.73h-6.83c-8.29,0-15.03,6.74-15.03,15.03v2.73c0,2.26,1.84,4.1,4.1,4.1h17.77V43.73z"/>
			<path class="st7" d="M46.47,71.07H27.33c-3.02,0-5.47,2.45-5.47,5.47c0,3.02,2.45,5.47,5.47,5.47h19.13V71.07z"/>
			<path class="st7" d="M46.47,87.47H27.33c-3.02,0-5.47,2.45-5.47,5.47c0,3.02,2.45,5.47,5.47,5.47h19.13V87.47z"/>
			<g>
				<g>
					<path class="st5" d="M57.03,27.33c0-5.94-4.74-10.76-10.64-10.92v21.84C52.29,38.1,57.03,33.27,57.03,27.33z"/>
					<path class="st7" d="M46.1,16.4c-6.04,0-10.93,4.9-10.93,10.93s4.9,10.93,10.93,10.93c0.1,0,0.19-0.01,0.29-0.01V16.41
						C46.29,16.41,46.2,16.4,46.1,16.4z"/>
				</g>
				<g>
					<g>
						<path class="st8" d="M55.82,22.87c-5.99,4.67-13.62,4.67-19.61,0c0-4.44,0-4.22,0-8.73c6.54,0,13.07,0,19.61,0
							C55.82,18.65,55.82,18.43,55.82,22.87z"/>
						<polygon class="st9" points="28.82,14.29 46.87,21.61 63.14,13.83 46.1,7.37 						"/>
						<path class="st8" d="M63.29,21.14c-0.16,0-0.31-0.16-0.31-0.31v-6.69c0-0.47-0.54-0.54-0.62-0.62l-15.87,0.62l0,0
							c-0.16,0-0.31-0.16-0.31-0.31s0.16-0.31,0.31-0.31l15.95-0.62l0,0c0.39,0.08,1.17,0.39,1.17,1.24v6.69
							C63.6,20.98,63.45,21.14,63.29,21.14z"/>
						<g>
							<path class="st10" d="M64.38,25.96l-0.62-5.99c0-0.16-0.08-0.23-0.23-0.23h-0.39c-0.08,0-0.23,0.08-0.23,0.23l-0.62,5.99
								c-0.08,0.86,0.39,1.56,1.09,1.56C63.99,27.52,64.46,26.82,64.38,25.96z"/>
							<ellipse class="st10" cx="63.29" cy="18.42" rx="0.62" ry="0.62"/>
						</g>
					</g>
				</g>
			</g>
		</g>
	</g>
</g>
</svg>