<!-- Generator: Adobe Illustrator 25.2.3, SVG Export Plug-In  -->
<svg version="1.1" xmlns="http://www.w3.org/2000/svg" xmlns:xlink="http://www.w3.org/1999/xlink" x="0px" y="0px" width="15px"
	 height="20px" viewBox="0 0 15 20" style="overflow:visible;enable-background:new 0 0 15 20;" xml:space="preserve">
<style type="text/css">
	.st0{fill:#607D8B;}
	.st1{fill:#FFC107;}
	.st2{fill:#546D79;}
	.st3{fill:#DEA806;}
</style>
<defs>
</defs>
<g>
	<path class="st0" d="M11.67,9.17c-0.46,0-0.83-0.37-0.83-0.83V5c0-1.84-1.49-3.33-3.33-3.33S4.17,3.16,4.17,5v3.33
		c0,0.46-0.37,0.83-0.83,0.83c-0.46,0-0.83-0.37-0.83-0.83V5c0-2.76,2.24-5,5-5s5,2.24,5,5v3.33C12.5,8.79,12.13,9.17,11.67,9.17
		L11.67,9.17z M11.67,9.17"/>
	<path class="st1" d="M13.12,7.5H1.87C0.84,7.5,0,8.34,0,9.38v8.75C0,19.16,0.84,20,1.87,20h11.25c1.03,0,1.88-0.84,1.88-1.88V9.38
		C15,8.34,14.16,7.5,13.12,7.5L13.12,7.5z M13.12,7.5"/>
	<path class="st2" d="M7.5,0c-2.76,0-5,2.24-5,5v2.5h1.67V5c0-1.84,1.49-3.33,3.33-3.33V0z M7.5,0"/>
	<path class="st3" d="M7.5,7.5H1.87C0.84,7.5,0,8.34,0,9.38v8.75C0,19.16,0.84,20,1.87,20H7.5V7.5z M7.5,7.5"/>
</g>
</svg>