<!-- Generator: Adobe Illustrator 25.2.3, SVG Export Plug-In  -->
<svg version="1.1" xmlns="http://www.w3.org/2000/svg" xmlns:xlink="http://www.w3.org/1999/xlink" x="0px" y="0px" width="131.2px"
	 height="131.21px" viewBox="0 0 131.2 131.21" style="overflow:visible;enable-background:new 0 0 131.2 131.21;"
	 xml:space="preserve">
<style type="text/css">
	.st0{fill:#ECEFF1;}
	.st1{fill:#2196F3;}
	.st2{fill:#1D83D4;}
	.st3{fill:#90A4AE;}
	.st4{fill:#CDD0D2;}
	.st5{fill:#7D8F97;}
	.st6{fill:#3A5569;}
	.st7{fill:#637888;}
	.st8{fill:#FEC656;}
</style>
<defs>
</defs>
<g>
	<path class="st0" d="M59.27,108.54c0.43-2.48,1.61-4.75,3.4-6.54l30.26-30.26v-56.7C92.94,6.74,86.2,0,77.9,0H15.03
		C6.74,0,0,6.74,0,15.03v84.74c0,8.29,6.74,15.03,15.03,15.03h43.13L59.27,108.54z"/>
	<path class="st1" d="M128.4,72.99l-6.76-6.76c-2.68-2.68-7.58-4.03-12.56,0.97l-40.59,40.59c-0.59,0.6-0.99,1.36-1.14,2.19
		l-2.9,16.43c-0.49,2.76,1.89,5.24,4.75,4.75l16.43-2.9c0.83-0.15,1.6-0.55,2.19-1.14l40.59-40.59
		C132.14,82.79,132.14,76.72,128.4,72.99L128.4,72.99z"/>
	<path class="st2" d="M125.25,69.84l-60.31,59.33c0.71,1.21,2.02,2.04,3.54,2.04c0.24,0,0.48-0.02,0.72-0.06l16.43-2.9
		c0.83-0.15,1.6-0.55,2.19-1.14l40.59-40.59c3.73-3.73,3.73-9.8,0-13.53L125.25,69.84z"/>
	<g>
		<path class="st3" d="M64.23,65.6H28.7c-2.26,0-4.1-1.84-4.1-4.1v-2.73c0-8.29,6.74-15.03,15.03-15.03H53.3
			c8.29,0,15.03,6.74,15.03,15.03v2.73C68.33,63.76,66.5,65.6,64.23,65.6z"/>
		<path class="st3" d="M49.2,82H27.33c-3.02,0-5.47-2.45-5.47-5.47c0-3.02,2.45-5.47,5.47-5.47H49.2c3.02,0,5.47,2.45,5.47,5.47
			C54.67,79.55,52.22,82,49.2,82z"/>
		<path class="st3" d="M46.58,98.4H27.33c-3.02,0-5.47-2.45-5.47-5.47c0-3.02,2.45-5.47,5.47-5.47h19.24c3.02,0,5.47,2.45,5.47,5.47
			C52.04,95.95,49.59,98.4,46.58,98.4z"/>
		<path class="st4" d="M46.47,0H15.03C6.74,0,0,6.74,0,15.03v84.73c0,8.29,6.74,15.03,15.03,15.03h31.43V98.4H27.33
			c-3.02,0-5.47-2.45-5.47-5.47c0-3.02,2.45-5.47,5.47-5.47h19.13V82H27.33c-3.02,0-5.47-2.45-5.47-5.47c0-3.02,2.45-5.47,5.47-5.47
			h19.13V65.6H28.7c-2.26,0-4.1-1.84-4.1-4.1v-2.73c0-8.29,6.74-15.03,15.03-15.03h6.83v-5.47c-6.03,0-10.93-4.9-10.93-10.93
			s4.9-10.93,10.93-10.93V0z"/>
		<g>
			<path class="st5" d="M46.47,43.73h-6.83c-8.29,0-15.03,6.74-15.03,15.03v2.73c0,2.26,1.84,4.1,4.1,4.1h17.77V43.73z"/>
			<path class="st5" d="M46.47,71.07H27.33c-3.02,0-5.47,2.45-5.47,5.47c0,3.02,2.45,5.47,5.47,5.47h19.13V71.07z"/>
			<path class="st5" d="M46.47,87.47H27.33c-3.02,0-5.47,2.45-5.47,5.47c0,3.02,2.45,5.47,5.47,5.47h19.13V87.47z"/>
			<g>
				<g>
					<path class="st3" d="M57.03,27.33c0-5.94-4.74-10.76-10.64-10.92v21.84C52.29,38.1,57.03,33.27,57.03,27.33z"/>
					<path class="st5" d="M46.1,16.4c-6.04,0-10.93,4.9-10.93,10.93s4.9,10.93,10.93,10.93c0.1,0,0.19-0.01,0.29-0.01V16.41
						C46.29,16.41,46.2,16.4,46.1,16.4z"/>
				</g>
				<g>
					<g>
						<path class="st6" d="M55.82,22.87c-5.99,4.67-13.62,4.67-19.61,0c0-4.44,0-4.22,0-8.73c6.54,0,13.07,0,19.61,0
							C55.82,18.65,55.82,18.43,55.82,22.87z"/>
						<polygon class="st7" points="28.82,14.29 46.87,21.61 63.14,13.83 46.1,7.37 						"/>
						<path class="st6" d="M63.29,21.14c-0.16,0-0.31-0.16-0.31-0.31v-6.69c0-0.47-0.54-0.54-0.62-0.62l-15.87,0.62l0,0
							c-0.16,0-0.31-0.16-0.31-0.31s0.16-0.31,0.31-0.31l15.95-0.62l0,0c0.39,0.08,1.17,0.39,1.17,1.24v6.69
							C63.6,20.98,63.45,21.14,63.29,21.14z"/>
						<g>
							<path class="st8" d="M64.38,25.96l-0.62-5.99c0-0.16-0.08-0.23-0.23-0.23h-0.39c-0.08,0-0.23,0.08-0.23,0.23l-0.62,5.99
								c-0.08,0.86,0.39,1.56,1.09,1.56C63.99,27.52,64.46,26.82,64.38,25.96z"/>
							<ellipse class="st8" cx="63.29" cy="18.42" rx="0.62" ry="0.62"/>
						</g>
					</g>
				</g>
			</g>
		</g>
	</g>
</g>
</svg>