<!-- Generator: Adobe Illustrator 25.2.3, SVG Export Plug-In  -->
<svg version="1.1" xmlns="http://www.w3.org/2000/svg" xmlns:xlink="http://www.w3.org/1999/xlink" x="0px" y="0px" width="15px"
	 height="10px" viewBox="0 0 15 10" style="overflow:visible;enable-background:new 0 0 15 10;" xml:space="preserve">
<style type="text/css">
	.st0{fill:#1E88E5;}
	.st1{fill:#64B5F6;}
	.st2{fill:#2196F3;}
</style>
<defs>
</defs>
<g>
	<path class="st0" d="M14.64,9.44C14.34,9.79,13.9,10,13.44,10H1.56c-0.46,0-0.9-0.21-1.2-0.56l5.73-4.77l0.59,0.41
		c0.49,0.34,1.14,0.34,1.63,0l0.59-0.41L14.64,9.44z"/>
	<path class="st1" d="M14.72,0.68L8.91,4.66L8.31,5.07c-0.49,0.34-1.14,0.34-1.63,0L6.09,4.66L0.28,0.68C0.57,0.25,1.05,0,1.56,0
		h11.87C13.95,0,14.44,0.25,14.72,0.68z"/>
	<g>
		<path class="st2" d="M6.09,4.66L0.36,9.44C0.13,9.16,0,8.8,0,8.44V1.56c0-0.32,0.09-0.63,0.28-0.89L6.09,4.66z"/>
		<path class="st2" d="M15,1.56v6.87c0,0.37-0.13,0.72-0.36,1L8.91,4.66l5.82-3.98C14.9,0.94,15,1.25,15,1.56z"/>
	</g>
</g>
</svg>