<svg id="Capa_1" data-name="Capa 1" xmlns="http://www.w3.org/2000/svg" viewBox="0 0 102.32 114.8"><defs><style>.cls-1{fill:#eceff1;}.cls-2{fill:#90a4ae;}.cls-3{fill:#cdd0d2;}.cls-4{fill:#7d8f97;}.cls-5{fill:#3a5569;}.cls-6{fill:#637888;}.cls-7{fill:#fec656;}.cls-8{fill:#ffc107;}.cls-9{fill:#dea806;}</style></defs><path class="cls-1" d="M962.64-153.18a35.58,35.58,0,0,1,35.54-35.54v-42.37a15,15,0,0,0-15-15H920.28a15,15,0,0,0-15,15v84.74a15,15,0,0,0,15,15h50A35.27,35.27,0,0,1,962.64-153.18Z" transform="translate(-905.24 246.12)"/><path class="cls-2" d="M969.48-180.52H933.94a4.11,4.11,0,0,1-4.1-4.1v-2.73a15.05,15.05,0,0,1,15-15h13.66a15.05,15.05,0,0,1,15,15v2.73A4.11,4.11,0,0,1,969.48-180.52Z" transform="translate(-905.24 246.12)"/><path class="cls-2" d="M954.44-164.12H932.58a5.47,5.47,0,0,1-5.47-5.46,5.47,5.47,0,0,1,5.47-5.47h21.86a5.47,5.47,0,0,1,5.47,5.47A5.47,5.47,0,0,1,954.44-164.12Z" transform="translate(-905.24 246.12)"/><path class="cls-2" d="M951.82-147.72H932.58a5.47,5.47,0,0,1-5.47-5.46,5.47,5.47,0,0,1,5.47-5.47h19.24a5.47,5.47,0,0,1,5.47,5.47A5.47,5.47,0,0,1,951.82-147.72Z" transform="translate(-905.24 246.12)"/><path class="cls-3" d="M951.71-246.12H920.28a15,15,0,0,0-15,15v84.74a15,15,0,0,0,15,15h31.43v-16.4H932.58a5.47,5.47,0,0,1-5.47-5.46,5.47,5.47,0,0,1,5.47-5.47h19.13v-5.47H932.58a5.47,5.47,0,0,1-5.47-5.46,5.47,5.47,0,0,1,5.47-5.47h19.13v-5.47H933.94a4.11,4.11,0,0,1-4.1-4.1v-2.73a15.05,15.05,0,0,1,15-15h6.83v-5.46a11,11,0,0,1-10.93-10.94,10.94,10.94,0,0,1,10.93-10.93Z" transform="translate(-905.24 246.12)"/><path class="cls-4" d="M951.71-202.39h-6.83a15.05,15.05,0,0,0-15,15v2.73a4.11,4.11,0,0,0,4.1,4.1h17.77Z" transform="translate(-905.24 246.12)"/><path class="cls-4" d="M951.71-175H932.58a5.47,5.47,0,0,0-5.47,5.47,5.47,5.47,0,0,0,5.47,5.46h19.13Z" transform="translate(-905.24 246.12)"/><path class="cls-4" d="M951.71-158.65H932.58a5.47,5.47,0,0,0-5.47,5.47,5.47,5.47,0,0,0,5.47,5.46h19.13Z" transform="translate(-905.24 246.12)"/><path class="cls-2" d="M962.28-218.79a10.92,10.92,0,0,0-10.65-10.91v21.83A10.92,10.92,0,0,0,962.28-218.79Z" transform="translate(-905.24 246.12)"/><path class="cls-4" d="M951.34-229.72a10.94,10.94,0,0,0-10.93,10.93,10.94,10.94,0,0,0,10.93,10.94l.29,0V-229.7Z" transform="translate(-905.24 246.12)"/><path class="cls-5" d="M961.07-223.25a15.48,15.48,0,0,1-19.61,0V-232h19.61Z" transform="translate(-905.24 246.12)"/><polygon class="cls-6" points="28.82 14.29 46.87 21.61 63.14 13.83 46.1 7.37 28.82 14.29"/><path class="cls-5" d="M968.54-225a.33.33,0,0,1-.32-.31V-232c0-.47-.54-.55-.62-.62l-15.87.62h0a.33.33,0,0,1-.31-.31.33.33,0,0,1,.31-.31l15.95-.63h0a1.33,1.33,0,0,1,1.17,1.25v6.69A.33.33,0,0,1,968.54-225Z" transform="translate(-905.24 246.12)"/><path class="cls-7" d="M969.62-220.15l-.62-6a.21.21,0,0,0-.23-.23h-.39a.25.25,0,0,0-.23.23l-.63,6c-.07.85.39,1.55,1.09,1.55S969.7-219.3,969.62-220.15Z" transform="translate(-905.24 246.12)"/><circle class="cls-7" cx="63.29" cy="18.42" r="0.62"/><path class="cls-8" d="M965-172.53a2.44,2.44,0,0,0,1.36,2c8.42,4.14,13.11,10.42,14,18.66v.11l-6.54.67a2.45,2.45,0,0,0-2.1,1.71,2.47,2.47,0,0,0,.74,2.61L989.63-132a2.44,2.44,0,0,0,1.85.58,2.5,2.5,0,0,0,1.7-.94l13.87-17.93a2.46,2.46,0,0,0,.2-2.7,2.47,2.47,0,0,0-2.4-1.26l-6.65.68c-2.67-14-15.56-23.19-31-21.63a2.48,2.48,0,0,0-2.18,2Z" transform="translate(-905.24 246.12)"/><path class="cls-9" d="M987.48-170.27l3.94,38.83a2.47,2.47,0,0,1-1.8-.59L972.43-146.8a2.45,2.45,0,0,1-.84-1.62,2.39,2.39,0,0,1,.09-1,2.48,2.48,0,0,1,2.11-1.71l6.54-.67v-.11c-.84-8.24-5.53-14.52-14-18.66a2.44,2.44,0,0,1-1.36-2l0-.68a2.48,2.48,0,0,1,2.18-2A29.84,29.84,0,0,1,987.48-170.27Z" transform="translate(-905.24 246.12)"/><circle class="cls-2" cx="46.47" cy="27.33" r="10.93"/><path class="cls-5" d="M961.43-223.25a15.48,15.48,0,0,1-19.61,0V-232h19.61Z" transform="translate(-905.24 246.12)"/><polygon class="cls-6" points="29.19 14.29 47.24 21.61 63.5 13.83 46.46 7.37 29.19 14.29"/><path class="cls-5" d="M968.9-225a.33.33,0,0,1-.31-.31V-232c0-.47-.54-.55-.62-.62L952.1-232h0a.34.34,0,0,1-.32-.31.33.33,0,0,1,.32-.31l15.95-.63h0a1.32,1.32,0,0,1,1.16,1.25v6.69A.33.33,0,0,1,968.9-225Z" transform="translate(-905.24 246.12)"/><path class="cls-7" d="M970-220.15l-.62-6a.21.21,0,0,0-.23-.23h-.39a.25.25,0,0,0-.24.23l-.62,6c-.08.85.39,1.55,1.09,1.55S970.07-219.3,970-220.15Z" transform="translate(-905.24 246.12)"/><circle class="cls-7" cx="63.66" cy="18.42" r="0.62"/></svg>