<!-- Generator: Adobe Illustrator 25.2.3, SVG Export Plug-In  -->
<svg version="1.1" xmlns="http://www.w3.org/2000/svg" xmlns:xlink="http://www.w3.org/1999/xlink" x="0px" y="0px"
	 width="101.95px" height="116.49px" viewBox="0 0 101.95 116.49"
	 style="overflow:visible;enable-background:new 0 0 101.95 116.49;" xml:space="preserve">
<style type="text/css">
	.st0{fill:#ECEFF1;}
	.st1{fill:#90A4AE;}
	.st2{fill:#CDD0D2;}
	.st3{fill:#7D8F97;}
	.st4{fill:#3A5569;}
	.st5{fill:#637888;}
	.st6{fill:#FEC656;}
	.st7{fill:#FFC107;}
	.st8{fill:#DEA806;}
</style>
<defs>
</defs>
<g>
	<g>
		<path class="st0" d="M57.4,92.93c0-19.59,15.94-35.53,35.53-35.53V15.03C92.93,6.74,86.19,0,77.9,0H15.03C6.74,0,0,6.74,0,15.03
			v84.73c0,8.29,6.74,15.03,15.03,15.03h49.95C60.25,108.77,57.4,101.18,57.4,92.93z"/>
		<g>
			<path class="st1" d="M64.23,65.6H28.7c-2.26,0-4.1-1.84-4.1-4.1v-2.73c0-8.29,6.74-15.03,15.03-15.03H53.3
				c8.29,0,15.03,6.74,15.03,15.03v2.73C68.33,63.76,66.5,65.6,64.23,65.6z"/>
			<path class="st1" d="M49.2,82H27.33c-3.02,0-5.47-2.45-5.47-5.47c0-3.02,2.45-5.47,5.47-5.47H49.2c3.02,0,5.47,2.45,5.47,5.47
				C54.67,79.55,52.22,82,49.2,82z"/>
			<path class="st1" d="M46.58,98.4H27.33c-3.02,0-5.47-2.45-5.47-5.47c0-3.02,2.45-5.47,5.47-5.47h19.24
				c3.02,0,5.47,2.45,5.47,5.47C52.04,95.95,49.59,98.4,46.58,98.4z"/>
			<path class="st2" d="M46.47,0H15.03C6.74,0,0,6.74,0,15.03v84.73c0,8.29,6.74,15.03,15.03,15.03h31.43V98.4H27.33
				c-3.02,0-5.47-2.45-5.47-5.47c0-3.02,2.45-5.47,5.47-5.47h19.13V82H27.33c-3.02,0-5.47-2.45-5.47-5.47
				c0-3.02,2.45-5.47,5.47-5.47h19.13V65.6H28.7c-2.26,0-4.1-1.84-4.1-4.1v-2.73c0-8.29,6.74-15.03,15.03-15.03h6.83v-5.47
				c-6.03,0-10.93-4.9-10.93-10.93s4.9-10.93,10.93-10.93V0z"/>
			<g>
				<path class="st3" d="M46.47,43.73h-6.83c-8.29,0-15.03,6.74-15.03,15.03v2.73c0,2.26,1.84,4.1,4.1,4.1h17.77V43.73z"/>
				<path class="st3" d="M46.47,71.07H27.33c-3.02,0-5.47,2.45-5.47,5.47c0,3.02,2.45,5.47,5.47,5.47h19.13V71.07z"/>
				<path class="st3" d="M46.47,87.47H27.33c-3.02,0-5.47,2.45-5.47,5.47c0,3.02,2.45,5.47,5.47,5.47h19.13V87.47z"/>
				<g>
					<g>
						<path class="st1" d="M57.03,27.33c0-5.94-4.74-10.76-10.64-10.92v21.84C52.29,38.1,57.03,33.27,57.03,27.33z"/>
						<path class="st3" d="M46.1,16.4c-6.04,0-10.93,4.9-10.93,10.93s4.9,10.93,10.93,10.93c0.1,0,0.19-0.01,0.29-0.01V16.41
							C46.29,16.41,46.2,16.4,46.1,16.4z"/>
					</g>
					<g>
						<g>
							<path class="st4" d="M55.82,22.87c-5.99,4.67-13.62,4.67-19.61,0c0-4.44,0-4.22,0-8.73c6.54,0,13.07,0,19.61,0
								C55.82,18.65,55.82,18.43,55.82,22.87z"/>
							<polygon class="st5" points="28.82,14.29 46.87,21.61 63.14,13.83 46.1,7.37 							"/>
							<path class="st4" d="M63.29,21.14c-0.16,0-0.31-0.16-0.31-0.31v-6.69c0-0.47-0.54-0.54-0.62-0.62l-15.87,0.62l0,0
								c-0.16,0-0.31-0.16-0.31-0.31s0.16-0.31,0.31-0.31l15.95-0.62l0,0c0.39,0.08,1.17,0.39,1.17,1.24v6.69
								C63.6,20.98,63.45,21.14,63.29,21.14z"/>
							<g>
								<path class="st6" d="M64.38,25.96l-0.62-5.99c0-0.16-0.08-0.23-0.23-0.23h-0.39c-0.08,0-0.23,0.08-0.23,0.23l-0.62,5.99
									c-0.08,0.86,0.39,1.56,1.09,1.56C63.99,27.52,64.46,26.82,64.38,25.96z"/>
								<ellipse class="st6" cx="63.29" cy="18.42" rx="0.62" ry="0.62"/>
							</g>
						</g>
					</g>
				</g>
			</g>
		</g>
	</g>
	<g>
		<path class="st7" d="M93.36,116.08c-0.7-0.46-1.13-1.25-1.11-2.12c0.2-9.38-3.21-16.43-10.14-20.98l-0.09-0.06l-3.6,5.5
			c-0.54,0.82-1.52,1.24-2.49,1.08c-0.96-0.17-1.75-0.9-1.97-1.87l-5.19-22.06c-0.15-0.65-0.03-1.35,0.34-1.91
			c0.37-0.56,0.96-0.95,1.62-1.08l22.3-4.05c0.97-0.17,1.96,0.25,2.5,1.06c0.54,0.83,0.55,1.89,0.01,2.71l-3.66,5.59
			c11.21,8.83,13.41,24.5,4.91,37.47c-0.6,0.92-1.74,1.33-2.79,1L93.36,116.08z"/>
		<path class="st8" d="M101.71,95.1L69.07,73.71c-0.35,0.55-0.46,1.23-0.31,1.87l5.19,22.06c0.15,0.63,0.53,1.16,1.05,1.5
			c0.27,0.18,0.59,0.31,0.92,0.37c0.97,0.17,1.95-0.25,2.49-1.08l3.6-5.5l0.09,0.06c6.93,4.54,10.34,11.6,10.14,20.98
			c-0.02,0.87,0.41,1.66,1.11,2.12l0.62,0.29c1.05,0.33,2.19-0.09,2.79-1C101.02,108.89,102.59,101.74,101.71,95.1z"/>
	</g>
</g>
<circle class="st1" cx="46.47" cy="27.33" r="10.93"/>
<g>
	<g>
		<path class="st4" d="M56.19,22.87c-5.99,4.67-13.62,4.67-19.61,0c0-4.44,0-4.22,0-8.73c6.54,0,13.07,0,19.61,0
			C56.19,18.65,56.19,18.43,56.19,22.87z"/>
		<polygon class="st5" points="29.19,14.29 47.24,21.61 63.5,13.83 46.46,7.37 		"/>
		<path class="st4" d="M63.66,21.14c-0.16,0-0.31-0.16-0.31-0.31v-6.69c0-0.47-0.54-0.54-0.62-0.62l-15.87,0.62l0,0
			c-0.16,0-0.31-0.16-0.31-0.31s0.16-0.31,0.31-0.31l15.95-0.62l0,0c0.39,0.08,1.17,0.39,1.17,1.24v6.69
			C63.97,20.98,63.81,21.14,63.66,21.14z"/>
		<g>
			<path class="st6" d="M64.75,25.96l-0.62-5.99c0-0.16-0.08-0.23-0.23-0.23H63.5c-0.08,0-0.23,0.08-0.23,0.23l-0.62,5.99
				c-0.08,0.86,0.39,1.56,1.09,1.56C64.36,27.52,64.83,26.82,64.75,25.96z"/>
			<ellipse class="st6" cx="63.66" cy="18.42" rx="0.62" ry="0.62"/>
		</g>
	</g>
</g>
</svg>