<!-- Generator: Adobe Illustrator 25.2.3, SVG Export Plug-In  -->
<svg version="1.1" xmlns="http://www.w3.org/2000/svg" xmlns:xlink="http://www.w3.org/1999/xlink" x="0px" y="0px" width="16.62px"
	 height="16.74px" viewBox="0 0 16.62 16.74" style="overflow:visible;enable-background:new 0 0 16.62 16.74;"
	 xml:space="preserve">
<style type="text/css">
	.st0{fill:#90A4AE;}
</style>
<defs>
</defs>
<g>
	<path class="st0" d="M7.01,7.78V1.3c0-0.72,0.58-1.3,1.3-1.3s1.3,0.58,1.3,1.3v6.49c0,0.72-0.58,1.3-1.3,1.3S7.01,8.5,7.01,7.78z
		 M13.45,1.9c-0.42-0.33-1.03-0.26-1.37,0.16c-0.33,0.42-0.26,1.03,0.16,1.37c1.54,1.22,2.43,3.04,2.43,5
		c0,3.51-2.86,6.36-6.36,6.36c-3.51,0-6.36-2.86-6.36-6.36c0-1.96,0.88-3.78,2.43-5C4.79,3.1,4.87,2.49,4.53,2.07
		C4.2,1.64,3.59,1.57,3.17,1.9C1.15,3.49,0,5.87,0,8.43c0,4.58,3.73,8.31,8.31,8.31s8.31-3.73,8.31-8.31
		C16.62,5.87,15.46,3.49,13.45,1.9z"/>
</g>
</svg>