<svg xmlns="http://www.w3.org/2000/svg" xmlns:xlink="http://www.w3.org/1999/xlink" viewBox="0 0 24 36.1"><defs><style>.cls-1{isolation:isolate;}.cls-2{fill:#2d3436;}.cls-10,.cls-3,.cls-4,.cls-5,.cls-7{mix-blend-mode:multiply;}.cls-3{fill:url(#linear-gradient);}.cls-4{fill:url(#linear-gradient-2);}.cls-5{fill:url(#linear-gradient-3);}.cls-6{mix-blend-mode:overlay;fill:url(#linear-gradient-4);}.cls-7{fill:url(#linear-gradient-5);}.cls-11,.cls-8{mix-blend-mode:soft-light;}.cls-8{opacity:0.53;fill:url(#linear-gradient-6);}.cls-9{fill:url(#linear-gradient-7);}.cls-10{fill:url(#linear-gradient-8);}.cls-11{opacity:0.69;fill:url(#linear-gradient-9);}.cls-12{fill:url(#linear-gradient-10);}</style><linearGradient id="linear-gradient" x1="239.66" y1="254.19" x2="260.3" y2="247.3" gradientTransform="matrix(-1, 0, 0, 1, 500, 0)" gradientUnits="userSpaceOnUse"><stop offset="0" stop-color="#fff" stop-opacity="0"/><stop offset="0.52"/><stop offset="1" stop-color="#fff" stop-opacity="0"/></linearGradient><linearGradient id="linear-gradient-2" x1="253.77" y1="245.03" x2="256.41" y2="241.76" gradientTransform="matrix(-1, 0, 0, 1, 500, 0)" gradientUnits="userSpaceOnUse"><stop offset="0" stop-color="#fff" stop-opacity="0"/><stop offset="1"/></linearGradient><linearGradient id="linear-gradient-3" x1="238" y1="247.65" x2="255.38" y2="247.65" gradientTransform="matrix(-1, 0, 0, 1, 500, 0)" gradientUnits="userSpaceOnUse"><stop offset="0.1" stop-color="#fff" stop-opacity="0"/><stop offset="0.52"/><stop offset="1" stop-color="#fff" stop-opacity="0"/></linearGradient><linearGradient id="linear-gradient-4" x1="252.22" y1="256.45" x2="251.38" y2="245.14" gradientTransform="matrix(-1, 0, 0, 1, 500, 0)" gradientUnits="userSpaceOnUse"><stop offset="0" stop-color="#fff" stop-opacity="0"/><stop offset="1" stop-color="#3a3d40"/></linearGradient><linearGradient id="linear-gradient-5" x1="248.01" y1="253.01" x2="235.43" y2="266.6" gradientUnits="userSpaceOnUse"><stop offset="0.1" stop-color="#fff" stop-opacity="0"/><stop offset="1"/></linearGradient><linearGradient id="linear-gradient-6" x1="248.85" y1="251.77" x2="236.04" y2="258.17" gradientUnits="userSpaceOnUse"><stop offset="0" stop-color="#fff" stop-opacity="0"/><stop offset="0.01" stop-color="#fff" stop-opacity="0.02"/><stop offset="0.12" stop-color="#fff" stop-opacity="0.31"/><stop offset="0.23" stop-color="#fff" stop-opacity="0.56"/><stop offset="0.33" stop-color="#fff" stop-opacity="0.75"/><stop offset="0.42" stop-color="#fff" stop-opacity="0.89"/><stop offset="0.49" stop-color="#fff" stop-opacity="0.97"/><stop offset="0.53" stop-color="#fff"/><stop offset="0.58" stop-color="#fff" stop-opacity="0.94"/><stop offset="0.67" stop-color="#fff" stop-opacity="0.78"/><stop offset="0.79" stop-color="#fff" stop-opacity="0.52"/><stop offset="0.94" stop-color="#fff" stop-opacity="0.16"/><stop offset="1" stop-color="#fff" stop-opacity="0"/></linearGradient><linearGradient id="linear-gradient-7" x1="250.69" y1="244.95" x2="245.31" y2="242.59" gradientTransform="matrix(-1, 0, 0, 1, 500, 0)" gradientUnits="userSpaceOnUse"><stop offset="0" stop-color="#fff" stop-opacity="0"/><stop offset="1" stop-color="#52595d"/></linearGradient><linearGradient id="linear-gradient-8" x1="237.85" y1="237.8" x2="263.03" y2="237.55" gradientUnits="userSpaceOnUse"><stop offset="0"/><stop offset="0.53" stop-color="#fff" stop-opacity="0"/><stop offset="1"/></linearGradient><linearGradient id="linear-gradient-9" x1="244.68" y1="237.74" x2="252.01" y2="237.66" xlink:href="#linear-gradient-6"/><linearGradient id="linear-gradient-10" x1="244.73" y1="236.82" x2="251.99" y2="236.74" gradientTransform="matrix(1, 0, 0, 1, 0, 0)" xlink:href="#linear-gradient-7"/></defs><g class="cls-1"><g id="OBJECTS"><path class="cls-2" d="M245.37,234.48s-.39,3.61.45,5.15A90.36,90.36,0,0,0,262,260.82c-1.61,2.37-3.28,4.69-5.05,6.95a96.32,96.32,0,0,1-7.39-10.43q-2.64-4.23-5-8.64c-.88-1.65-2.21-3.58-2.45-5.35C241.74,240.55,245.37,234.48,245.37,234.48Z" transform="translate(-238 -231.95)"/><path class="cls-3" d="M242.11,243.35c.42,2.94,2.89,6.25,4.43,9,2,3.48,4.08,6.94,6.38,10.23a58.18,58.18,0,0,0,4,5.23c1.77-2.26,3.44-4.58,5.05-6.95a67.56,67.56,0,0,1-6.83-7.73c-1.7-2.18-3.33-4.46-4.9-6.74s-3.22-4.48-4.45-6.72a6.13,6.13,0,0,1-.45-5.15C244,237,241.72,240.56,242.11,243.35Z" transform="translate(-238 -231.95)"/><path class="cls-4" d="M242.11,243.35c.42,2.94,2.89,6.25,4.43,9,2,3.48,4.08,6.94,6.38,10.23a58.18,58.18,0,0,0,4,5.23c1.77-2.26,3.44-4.58,5.05-6.95a67.56,67.56,0,0,1-6.83-7.73c-1.7-2.18-3.33-4.46-4.9-6.74s-3.22-4.48-4.45-6.72a6.13,6.13,0,0,1-.45-5.15C244,237,241.72,240.56,242.11,243.35Z" transform="translate(-238 -231.95)"/><path class="cls-5" d="M244.7,235.74c.39-.76.67-1.26.67-1.26a6.17,6.17,0,0,0,.45,5.15A90.36,90.36,0,0,0,262,260.82a85.18,85.18,0,0,1-16.55-21.06A6.1,6.1,0,0,1,244.7,235.74Z" transform="translate(-238 -231.95)"/><path class="cls-2" d="M255.19,234.9s0,3.32-.74,4.72A96.71,96.71,0,0,1,238,261.5a86.25,86.25,0,0,0,5.68,6.55,102.49,102.49,0,0,0,7.23-10.67c1.71-2.85,3.34-5.75,4.86-8.7.86-1.66,2.13-3.57,2.39-5.36C258.55,240.64,255.19,234.9,255.19,234.9Z" transform="translate(-238 -231.95)"/><path class="cls-6" d="M255.19,234.9s0,3.32-.74,4.72A96.71,96.71,0,0,1,238,261.5a86.25,86.25,0,0,0,5.68,6.55,102.49,102.49,0,0,0,7.23-10.67c1.71-2.85,3.34-5.75,4.86-8.7.86-1.66,2.15-3.57,2.39-5.36C258.37,241.8,255.19,234.9,255.19,234.9Z" transform="translate(-238 -231.95)"/><path class="cls-7" d="M255.19,234.9s0,3.32-.74,4.72A96.71,96.71,0,0,1,238,261.5a86.25,86.25,0,0,0,5.68,6.55,102.49,102.49,0,0,0,7.23-10.67c1.71-2.85,3.34-5.75,4.86-8.7.86-1.66,2.11-3.4,2.39-5.36C258.35,242,255.19,234.9,255.19,234.9Z" transform="translate(-238 -231.95)"/><path class="cls-8" d="M255.19,234.9s0,3.32-.74,4.72A96.71,96.71,0,0,1,238,261.5a86.25,86.25,0,0,0,5.68,6.55,102.49,102.49,0,0,0,7.23-10.67c1.71-2.85,3.34-5.75,4.86-8.7.86-1.66,2.14-3.57,2.39-5.36S255.19,234.9,255.19,234.9Z" transform="translate(-238 -231.95)"/><path class="cls-9" d="M255.76,236a6.08,6.08,0,0,1-.88,3.51C252,244.69,244,254.75,244,254.75s7.58-10,10.43-15.13a6,6,0,0,0,.74-4.72S255.31,235.09,255.76,236Z" transform="translate(-238 -231.95)"/><path class="cls-2" d="M250.06,232c8.53,0,8.1,11.37,8.1,11.37s-1.64-6-8-6c-7,0-8.06,5.66-8.06,5.66S242.07,232,250.06,232Z" transform="translate(-238 -231.95)"/><path class="cls-10" d="M250.06,232c8.53,0,8.1,11.37,8.1,11.37s-1.64-6-8-6c-7,0-8.06,5.66-8.06,5.66S242.07,232,250.06,232Z" transform="translate(-238 -231.95)"/><path class="cls-11" d="M250.06,232c8.53,0,8.1,11.37,8.1,11.37s-1.64-6-8-6c-7,0-8.06,5.66-8.06,5.66S242.07,232,250.06,232Z" transform="translate(-238 -231.95)"/><path class="cls-12" d="M250.06,232.22c6.16,0,7.66,5.87,8,9.18-.3-3.24-1.72-9.45-8-9.45s-7.63,6.8-7.9,9.71C242.49,238.62,243.94,232.22,250.06,232.22Z" transform="translate(-238 -231.95)"/></g></g></svg>