<svg id="Modo_de_aislamiento" data-name="Modo de aislamiento" xmlns="http://www.w3.org/2000/svg" viewBox="0 0 92.94 114.81">
    <defs>
        <style>.cls-1{fill:#eceff1;}.cls-2{fill:#cdd0d2;}.cls-3{fill:#ffc107;}.cls-4{fill:#dea806;}.cls-5{fill:#4caf50;}.cls-6{fill:#429846;}.cls-7{fill:#2196f3;}.cls-8{fill:#1d83d4;}</style>
    </defs>
    <path class="cls-1" d="M362.13-212.72H299.26a15,15,0,0,0-15,15v84.74a15.05,15.05,0,0,0,15,15h62.87a15.05,15.05,0,0,0,15-15v-84.74A15,15,0,0,0,362.13-212.72Z" transform="translate(-284.22 212.72)"/>
    <path class="cls-2" d="M330.69-212.72H299.26a15,15,0,0,0-15,15v84.74a15.05,15.05,0,0,0,15,15h31.43V-212.72Z" transform="translate(-284.22 212.72)"/>
    <path class="cls-3" d="M326.74-160.12v-26.66a2.23,2.23,0,0,0-2.22-2.22,28.91,28.91,0,0,0-28.88,28.88,2.22,2.22,0,0,0,2.22,2.22h26.66A2.23,2.23,0,0,0,326.74-160.12Z" transform="translate(-284.22 212.72)"/>
    <path class="cls-4" d="M304-180.39a28.78,28.78,0,0,0-8.33,20.27,2.22,2.22,0,0,0,2.22,2.22h26.66a2.2,2.2,0,0,0,1.56-.65Z" transform="translate(-284.22 212.72)"/>
    <path class="cls-5" d="M329.85-147.76a2.21,2.21,0,0,0-2-1.25H301a2.22,2.22,0,0,0-2.22,2.22,29,29,0,0,0,29.06,28.88,29.09,29.09,0,0,0,12.63-2.86,2.23,2.23,0,0,0,1.14-1.27,2.26,2.26,0,0,0-.1-1.71Z" transform="translate(-284.22 212.72)"/>
    <path class="cls-6" d="M327.85-149H301a2.22,2.22,0,0,0-2.22,2.22A28.84,28.84,0,0,0,312.92-122l16.18-26.6A2.17,2.17,0,0,0,327.85-149Z" transform="translate(-284.22 212.72)"/>
    <path class="cls-7" d="M337.85-183.73a2.23,2.23,0,0,0-2.23,2.22V-155a2.2,2.2,0,0,0,.23,1l11.59,23.86a2.2,2.2,0,0,0,2,1.26,2.21,2.21,0,0,0,1-.22A28.53,28.53,0,0,0,366.72-155,28.82,28.82,0,0,0,337.85-183.73Z" transform="translate(-284.22 212.72)"/>
    <path class="cls-8" d="M365.76-162.39l-30,8.06a2.36,2.36,0,0,0,.12.28l11.59,23.87a2.21,2.21,0,0,0,2,1.25,2.21,2.21,0,0,0,1-.22A28.53,28.53,0,0,0,366.72-155a28.42,28.42,0,0,0-1-7.37Z" transform="translate(-284.22 212.72)"/>
</svg>