<!-- Generator: Adobe Illustrator 25.2.3, SVG Export Plug-In  -->
<svg version="1.1" xmlns="http://www.w3.org/2000/svg" xmlns:xlink="http://www.w3.org/1999/xlink" x="0px" y="0px"
	 width="118.61px" height="114.38px" viewBox="0 0 118.61 114.38"
	 style="overflow:visible;enable-background:new 0 0 118.61 114.38;" xml:space="preserve">
<style type="text/css">
	.st0{fill:#E14A4A;}
	.st1{fill:#3A5569;}
	.st2{fill:#637888;}
	.st3{fill:#FEC656;}
	.st4{fill:#C2C6C6;}
	.st5{fill:#E5EAE9;}
	.st6{fill:#888C8C;}
	.st7{fill:#BABABA;}
	.st8{fill:#E0E0DF;}
	.st9{fill:#F16D6E;}
	.st10{fill:#4CAF50;}
	.st11{fill:#FFFFFF;}
	.st12{fill:#429846;}
	.st13{fill:#DEDEDE;}
</style>
<defs>
</defs>
<g>
	<g>
		<polygon class="st0" points="28.94,73.82 27.15,84.99 30.34,82.2 34.93,85.59 33.33,76.01 		"/>
		<polygon class="st0" points="24.16,71.82 14.18,73.62 18.37,74.42 16.77,77.01 28.75,73.82 		"/>
	</g>
	<path class="st1" d="M71.64,51.67c-15.36,11.97-34.91,11.97-50.28,0c0-11.37,0-22.74,0-34.32c16.76,0,33.52,0,50.28,0
		C71.64,28.93,71.64,40.3,71.64,51.67z"/>
	<polygon class="st2" points="2.41,17.76 48.7,36.51 90.39,16.56 46.7,0 	"/>
	<path class="st1" d="M90.79,35.31c-0.4,0-0.8-0.4-0.8-0.8V17.36c0-1.2-1.4-1.4-1.6-1.6l-40.7,1.6l0,0c-0.4,0-0.8-0.4-0.8-0.8
		s0.4-0.8,0.8-0.8l40.9-1.6l0,0c1,0.2,2.99,1,2.99,3.19v17.16C91.59,34.91,91.19,35.31,90.79,35.31z"/>
	<g>
		<path class="st3" d="M93.59,47.68l-1.6-15.36c0-0.4-0.2-0.6-0.6-0.6h-1c-0.2,0-0.6,0.2-0.6,0.6l-1.6,15.36
			c-0.2,2.19,1,3.99,2.79,3.99C92.59,51.67,93.79,49.88,93.59,47.68z"/>
		<ellipse class="st3" cx="90.79" cy="28.33" rx="1.6" ry="1.6"/>
	</g>
	<path class="st4" d="M75.63,86.79c0,0-4.19,6.38-13.57,6.98c0,0-34.52-26.73-59.25-26.73c0,0,0.6-4.39,5.99-6.38l40.7,10.97
		L75.63,86.79z"/>
	<path class="st5" d="M78.82,82.2c-3.19,6.98-9.78,10.17-14.56,6.98c-4.79-2.99-6.18-11.17-2.99-18.16
		c3.19-6.98,9.78-10.17,14.56-6.98C80.62,67.04,82.01,75.21,78.82,82.2z"/>
	<path class="st6" d="M69.45,71.82c3.99-0.4,5.39,6.78-0.4,9.38l-14.36-4.99C54.68,76.21,65.65,72.22,69.45,71.82z"/>
	<path class="st7" d="M72.24,89.38c0,0-10.77,1.4-8.78-9.58c0.4-2.59,2-6.58,5.99-7.98l-17.36-2.99l5.59,15.76l6.58,4.59
		C64.06,89.18,67.65,91.97,72.24,89.38z"/>
	<path class="st8" d="M61.27,71.03c2.19-4.99,6.18-7.98,10.17-8.18C38.12,62.45,7.4,45.89,7.4,45.89s-4.99-1.2-6.78,5.99
		c-2.19,7.98,2.19,10.77,2.19,10.77C28.15,63.84,55.88,83,63.46,88.58C59.07,84.99,58.27,77.61,61.27,71.03z"/>
	<path class="st9" d="M42.71,59.05c0,0-15.36,7.38-7.58,17.96l-8.58-3.99c0,0-3.59-10.77,8.38-15.96L42.71,59.05z"/>
</g>
<g>
	<path class="st10" d="M94.18,114.38c-13.47,0-24.42-10.95-24.42-24.42s10.96-24.42,24.42-24.42s24.42,10.95,24.42,24.42
		S107.65,114.38,94.18,114.38z"/>
	<path class="st11" d="M94.18,103.53c-2,0-3.62-1.62-3.62-3.62v-19.9c0-2,1.62-3.62,3.62-3.62c2,0,3.62,1.62,3.62,3.62v19.9
		C97.8,101.91,96.18,103.53,94.18,103.53z"/>
	<path class="st11" d="M104.13,93.58h-19.9c-2,0-3.62-1.62-3.62-3.62c0-2,1.62-3.62,3.62-3.62h19.9c2,0,3.62,1.62,3.62,3.62
		C107.75,91.96,106.13,93.58,104.13,93.58z"/>
	<path class="st12" d="M94.18,65.54c-13.47,0-24.42,10.95-24.42,24.42s10.96,24.42,24.42,24.42v-10.85c-2,0-3.62-1.62-3.62-3.62
		v-6.33h-6.33c-2,0-3.62-1.62-3.62-3.62c0-2,1.62-3.62,3.62-3.62h6.33v-6.33c0-2,1.62-3.62,3.62-3.62V65.54z"/>
	<path class="st13" d="M94.18,93.58h-3.62v6.33c0,2,1.62,3.62,3.62,3.62V93.58z M94.18,76.39c-2,0-3.62,1.62-3.62,3.62v6.33h3.62
		V76.39z"/>
	<path class="st13" d="M94.18,86.34h-3.62h-6.33c-2,0-3.62,1.62-3.62,3.62c0,2,1.62,3.62,3.62,3.62h6.33h3.62V86.34z"/>
</g>
</svg>