<!-- Generator: Adobe Illustrator 25.2.3, SVG Export Plug-In  -->
<svg version="1.1" xmlns="http://www.w3.org/2000/svg" xmlns:xlink="http://www.w3.org/1999/xlink" x="0px" y="0px"
	 width="117.39px" height="115.12px" viewBox="0 0 117.39 115.12"
	 style="overflow:visible;enable-background:new 0 0 117.39 115.12;" xml:space="preserve">
<style type="text/css">
	.st0{fill:#ECEFF1;}
	.st1{fill:#90A4AE;}
	.st2{fill:#CDD0D2;}
	.st3{fill:#7D8F97;}
	.st4{fill:#4CAF50;}
	.st5{fill:#FFFFFF;}
	.st6{fill:#429846;}
	.st7{fill:#DEDEDE;}
</style>
<defs>
</defs>
<g>
	<path class="st0" d="M57.4,92.93c0-19.59,15.94-35.53,35.53-35.53V15.03C92.93,6.74,86.19,0,77.9,0H15.03C6.74,0,0,6.74,0,15.03
		v84.73c0,8.29,6.74,15.03,15.03,15.03h49.95C60.25,108.77,57.4,101.18,57.4,92.93z"/>
	<circle class="st1" cx="46.47" cy="27.33" r="10.93"/>
	<path class="st1" d="M64.23,65.6H28.7c-2.26,0-4.1-1.84-4.1-4.1v-2.73c0-8.29,6.74-15.03,15.03-15.03H53.3
		c8.29,0,15.03,6.74,15.03,15.03v2.73C68.33,63.76,66.5,65.6,64.23,65.6z"/>
	<path class="st1" d="M49.2,82H27.33c-3.02,0-5.47-2.45-5.47-5.47c0-3.02,2.45-5.47,5.47-5.47H49.2c3.02,0,5.47,2.45,5.47,5.47
		C54.67,79.55,52.22,82,49.2,82z"/>
	<path class="st1" d="M46.58,98.4H27.33c-3.02,0-5.47-2.45-5.47-5.47c0-3.02,2.45-5.47,5.47-5.47h19.24c3.02,0,5.47,2.45,5.47,5.47
		C52.04,95.95,49.59,98.4,46.58,98.4z"/>
	<path class="st2" d="M46.47,0H15.03C6.74,0,0,6.74,0,15.03v84.73c0,8.29,6.74,15.03,15.03,15.03h31.43V98.4H27.33
		c-3.02,0-5.47-2.45-5.47-5.47c0-3.02,2.45-5.47,5.47-5.47h19.13V82H27.33c-3.02,0-5.47-2.45-5.47-5.47c0-3.02,2.45-5.47,5.47-5.47
		h19.13V65.6H28.7c-2.26,0-4.1-1.84-4.1-4.1v-2.73c0-8.29,6.74-15.03,15.03-15.03h6.83v-5.47c-6.03,0-10.93-4.9-10.93-10.93
		s4.9-10.93,10.93-10.93V0z"/>
	<g>
		<path class="st3" d="M46.47,16.4c-6.03,0-10.93,4.9-10.93,10.93s4.9,10.93,10.93,10.93V16.4z"/>
		<path class="st3" d="M46.47,43.73h-6.83c-8.29,0-15.03,6.74-15.03,15.03v2.73c0,2.26,1.84,4.1,4.1,4.1h17.77V43.73z"/>
		<path class="st3" d="M46.47,71.07H27.33c-3.02,0-5.47,2.45-5.47,5.47c0,3.02,2.45,5.47,5.47,5.47h19.13V71.07z"/>
		<path class="st3" d="M46.47,87.47H27.33c-3.02,0-5.47,2.45-5.47,5.47c0,3.02,2.45,5.47,5.47,5.47h19.13V87.47z"/>
	</g>
	<g>
		<path class="st4" d="M92.97,115.12c-13.47,0-24.42-10.95-24.42-24.42S79.5,66.27,92.97,66.27s24.42,10.95,24.42,24.42
			S106.43,115.12,92.97,115.12z"/>
		<path class="st5" d="M92.97,104.26c-2,0-3.62-1.62-3.62-3.62v-19.9c0-2,1.62-3.62,3.62-3.62c2,0,3.62,1.62,3.62,3.62v19.9
			C96.59,102.65,94.96,104.26,92.97,104.26z"/>
		<path class="st5" d="M102.92,94.31h-19.9c-2,0-3.62-1.62-3.62-3.62c0-2,1.62-3.62,3.62-3.62h19.9c2,0,3.62,1.62,3.62,3.62
			C106.54,92.7,104.91,94.31,102.92,94.31z"/>
		<path class="st6" d="M92.97,66.27c-13.47,0-24.42,10.95-24.42,24.42s10.96,24.42,24.42,24.42v-10.85c-2,0-3.62-1.62-3.62-3.62
			v-6.33h-6.33c-2,0-3.62-1.62-3.62-3.62c0-2,1.62-3.62,3.62-3.62h6.33v-6.33c0-2,1.62-3.62,3.62-3.62V66.27z"/>
		<path class="st7" d="M92.97,94.31h-3.62v6.33c0,2,1.62,3.62,3.62,3.62V94.31z M92.97,77.13c-2,0-3.62,1.62-3.62,3.62v6.33h3.62
			V77.13z"/>
		<path class="st7" d="M92.97,87.08h-3.62h-6.33c-2,0-3.62,1.62-3.62,3.62c0,2,1.62,3.62,3.62,3.62h6.33h3.62V87.08z"/>
	</g>
</g>
</svg>