<!-- Generator: Adobe Illustrator 25.2.3, SVG Export Plug-In  -->
<svg version="1.1" xmlns="http://www.w3.org/2000/svg" xmlns:xlink="http://www.w3.org/1999/xlink" x="0px" y="0px" width="15px"
	 height="17.5px" viewBox="0 0 15 17.5" style="overflow:visible;enable-background:new 0 0 15 17.5;" xml:space="preserve">
<style type="text/css">
	.st0{fill:#607D8B;}
	.st1{fill:#546D79;}
</style>
<defs>
</defs>
<g>
	<path class="st0" d="M11.67,4.17c0,2.3-1.87,4.17-4.17,4.17S3.33,6.47,3.33,4.17S5.2,0,7.5,0S11.67,1.87,11.67,4.17L11.67,4.17z
		 M11.67,4.17"/>
	<path class="st0" d="M15,13.96v2.92c0,0.34-0.28,0.62-0.62,0.62H0.62C0.28,17.5,0,17.22,0,16.88v-2.92C0,11.77,1.77,10,3.96,10
		h7.08C13.23,10,15,11.77,15,13.96L15,13.96z M15,13.96"/>
	<path class="st1" d="M7.5,10H3.96C1.78,10,0,11.78,0,13.96v2.92c0,0.35,0.28,0.62,0.62,0.62H7.5V10z M7.5,10"/>
	<path class="st1" d="M7.5,0C5.2,0,3.33,1.87,3.33,4.17S5.2,8.33,7.5,8.33V0z M7.5,0"/>
</g>
</svg>