<!-- Generator: Adobe Illustrator 25.2.3, SVG Export Plug-In  -->
<svg version="1.1" xmlns="http://www.w3.org/2000/svg" xmlns:xlink="http://www.w3.org/1999/xlink" x="0px" y="0px" width="92.94px"
	 height="114.81px" viewBox="0 0 92.94 114.81" style="overflow:visible;enable-background:new 0 0 92.94 114.81;"
	 xml:space="preserve">
<style type="text/css">
	.st0{fill:#ECEFF1;}
	.st1{fill:#90A4AE;}
	.st2{fill:#CDD0D2;}
	.st3{fill:#7D8F97;}
	.st4{fill:#3A5569;}
	.st5{fill:#637888;}
	.st6{fill:#FEC656;}
	.st7{fill:#4CAF50;}
</style>
<defs>
</defs>
<g>
	<g>
		<path class="st0" d="M77.9,0H34.77H15.03C6.74,0,0,6.74,0,15.03v28.04v56.7c0,8.29,6.74,15.03,15.03,15.03h43.13H77.9
			c8.29,0,15.03-6.74,15.03-15.03V71.73v-56.7C92.94,6.74,86.2,0,77.9,0z"/>
		<g>
			<circle class="st1" cx="46.47" cy="27.33" r="10.93"/>
			<path class="st1" d="M64.24,65.6H28.7c-2.26,0-4.1-1.84-4.1-4.1v-2.73c0-8.29,6.74-15.03,15.03-15.03H53.3
				c8.29,0,15.03,6.74,15.03,15.03v2.73C68.34,63.77,66.5,65.6,64.24,65.6z"/>
			<path class="st1" d="M65.6,82H27.33c-3.02,0-5.47-2.45-5.47-5.47c0-3.02,2.44-5.47,5.47-5.47H65.6c3.02,0,5.47,2.45,5.47,5.47
				C71.07,79.55,68.63,82,65.6,82z"/>
			<path class="st1" d="M64.91,98.4H28.02c-3.4,0-6.15-2.45-6.15-5.47s2.75-5.47,6.15-5.47h36.89c3.4,0,6.15,2.45,6.15,5.47
				S68.31,98.4,64.91,98.4z"/>
		</g>
		<path class="st2" d="M46.47,0H15.03C6.74,0,0,6.74,0,15.03v84.74c0,8.29,6.74,15.03,15.03,15.03h31.43V98.4H27.33
			c-3.02,0-5.47-2.45-5.47-5.47s2.45-5.47,5.47-5.47h19.13V82H27.33c-3.02,0-5.47-2.45-5.47-5.47c0-3.02,2.45-5.47,5.47-5.47h19.13
			V65.6H28.7c-2.26,0-4.1-1.84-4.1-4.1v-2.73c0-8.29,6.74-15.03,15.03-15.03h6.83v-5.47c-6.03,0-10.93-4.9-10.93-10.93
			s4.9-10.93,10.93-10.93V0z"/>
		<path class="st3" d="M46.47,16.4c-6.03,0-10.93,4.9-10.93,10.93s4.9,10.93,10.93,10.93V16.4z"/>
		<path class="st3" d="M46.47,43.74h-6.83c-8.29,0-15.03,6.74-15.03,15.03v2.73c0,2.26,1.84,4.1,4.1,4.1h17.77V43.74z"/>
		<path class="st3" d="M46.47,71.07H27.33c-3.02,0-5.47,2.45-5.47,5.47c0,3.02,2.45,5.47,5.47,5.47h19.13V71.07z"/>
		<path class="st3" d="M46.47,87.47H27.33c-3.02,0-5.47,2.45-5.47,5.47s2.45,5.47,5.47,5.47h19.13V87.47z"/>
		<g>
			<path class="st1" d="M64.23,65.6H28.7c-2.26,0-4.1-1.84-4.1-4.1v-2.73c0-8.29,6.74-15.03,15.03-15.03H53.3
				c8.29,0,15.03,6.74,15.03,15.03v2.73C68.33,63.76,66.5,65.6,64.23,65.6z"/>
			<g>
				<path class="st3" d="M46.47,43.73h-6.83c-8.29,0-15.03,6.74-15.03,15.03v2.73c0,2.26,1.84,4.1,4.1,4.1h17.77V43.73z"/>
				<path class="st3" d="M46.47,71.07H27.33c-3.02,0-5.47,2.45-5.47,5.47c0,3.02,2.45,5.47,5.47,5.47h19.13V71.07z"/>
				<path class="st3" d="M46.47,87.47H27.33c-3.02,0-5.47,2.45-5.47,5.47c0,3.02,2.45,5.47,5.47,5.47h19.13V87.47z"/>
			</g>
			<g>
				<g>
					<path class="st4" d="M55.82,22.87c-5.99,4.67-13.62,4.67-19.61,0c0-4.44,0-4.22,0-8.73c6.54,0,13.07,0,19.61,0
						C55.82,18.65,55.82,18.43,55.82,22.87z"/>
					<polygon class="st5" points="28.82,14.29 46.87,21.61 63.14,13.83 46.1,7.37 					"/>
					<path class="st4" d="M63.29,21.14c-0.16,0-0.31-0.16-0.31-0.31v-6.69c0-0.47-0.54-0.54-0.62-0.62l-15.87,0.62l0,0
						c-0.16,0-0.31-0.16-0.31-0.31c0-0.16,0.16-0.31,0.31-0.31l15.95-0.62l0,0c0.39,0.08,1.17,0.39,1.17,1.24v6.69
						C63.6,20.98,63.45,21.14,63.29,21.14z"/>
					<g>
						<path class="st6" d="M64.38,25.96l-0.62-5.99c0-0.16-0.08-0.23-0.23-0.23h-0.39c-0.08,0-0.23,0.08-0.23,0.23l-0.62,5.99
							c-0.08,0.86,0.39,1.56,1.09,1.56C63.99,27.52,64.46,26.82,64.38,25.96z"/>
						<ellipse class="st6" cx="63.29" cy="18.42" rx="0.62" ry="0.62"/>
					</g>
				</g>
			</g>
		</g>
	</g>
	<g>
		<g>
			<g>
				<path class="st7" d="M9.9,80.75c-0.45,0-0.89-0.18-1.21-0.5L6.25,77.8c-0.67-0.67-0.67-1.75,0-2.41s1.75-0.67,2.41,0l1.24,1.24
					l3.98-3.98c0.67-0.67,1.75-0.67,2.41,0c0.67,0.67,0.67,1.75,0,2.41l-5.18,5.18C10.78,80.57,10.35,80.75,9.9,80.75L9.9,80.75z"/>
			</g>
			<g>
				<path class="st7" d="M9.9,97.14c-0.45,0-0.89-0.18-1.21-0.5l-2.44-2.44c-0.67-0.67-0.67-1.75,0-2.41c0.67-0.67,1.75-0.67,2.41,0
					l1.24,1.24l3.98-3.98c0.67-0.67,1.75-0.67,2.41,0c0.67,0.67,0.67,1.75,0,2.41l-5.18,5.18C10.78,96.96,10.35,97.14,9.9,97.14
					L9.9,97.14z"/>
			</g>
		</g>
	</g>
</g>
</svg>